<?xml version="1.0" encoding="utf-8" standalone="no"?>
<!DOCTYPE svg PUBLIC "-//W3C//DTD SVG 1.1//EN"
  "http://www.w3.org/Graphics/SVG/1.1/DTD/svg11.dtd">
<svg xmlns:xlink="http://www.w3.org/1999/xlink" width="360pt" height="360pt" viewBox="0 0 360 360" xmlns="http://www.w3.org/2000/svg" version="1.1">
 <metadata>
  <rdf:RDF xmlns:dc="http://purl.org/dc/elements/1.1/" xmlns:cc="http://creativecommons.org/ns#" xmlns:rdf="http://www.w3.org/1999/02/22-rdf-syntax-ns#">
   <cc:Work>
    <dc:type rdf:resource="http://purl.org/dc/dcmitype/StillImage"/>
    <dc:date>2026-01-09T18:07:40.666826</dc:date>
    <dc:format>image/svg+xml</dc:format>
    <dc:creator>
     <cc:Agent>
      <dc:title>Matplotlib v3.8.3, https://matplotlib.org/</dc:title>
     </cc:Agent>
    </dc:creator>
   </cc:Work>
  </rdf:RDF>
 </metadata>
 <defs>
  <style type="text/css">*{stroke-linejoin: round; stroke-linecap: butt}</style>
 </defs>
 <g id="figure_1">
  <g id="patch_1">
   <path d="M 0 360 
L 360 360 
L 360 0 
L 0 0 
L 0 360 
z
" style="fill: none"/>
  </g>
  <g id="axes_1">
   <g id="line2d_1">
    <path d="M 187.159464 181.8 
L 158.250433 178.309683 
L 200.890772 127.646256 
L 263.230325 210.513318 
L 139.259385 270.382816 
L 91.034758 115.616547 
L 271.903683 89.253444 
L 272.091505 277.871843 
L 83.006142 250.87934 
L 134.784656 80.7249 
L 280.363469 148.442917 
L 204.688008 256.4568 
L 134.784656 187.212903 
L 187.590634 157.510694 
L 182.684735 181.181618 
L 195.832821 149.971042 
L 243.519329 204.190672 
L 145.977321 254.854099 
L 102.415245 121.257724 
L 268.443303 96.089119 
L 269.12169 277.847892 
L 78.719191 251.046142 
L 132.598957 71.80214 
L 294.233486 145.54703 
L 207.16486 274.346556 
L 113.176739 188.16458 
L 188.8522 134.135704 
L 207.16486 184.91564 
L 189.648994 173.262935 
L 222.005727 196.344398 
L 154.790052 236.929372 
L 116.637119 129.54489 
L 261.725366 105.873966 
L 263.230325 274.171233 
L 78.424791 248.610526 
L 132.648071 66.851754 
L 304.273094 144.382816 
L 208.33621 288.925924 
L 94.247921 188.188531 
L 190.850121 112.553858 
L 230.770654 189.361437 
L 182.546027 196.637926 
L 199.523479 187.212903 
L 165.448653 217.329568 
L 133.091919 140.263098 
L 251.898286 118.142084 
L 254.761107 266.88148 
L 82.222026 243.800018 
L 134.784656 66.128352 
L 310.056616 144.853912 
L 208.287096 299.620181 
L 78.719191 187.388226 
L 193.433551 93.57443 
L 252.620173 194.311823 
L 174.795449 219.217184 
L 176.932034 177.110499 
L 177.610422 196.826513 
L 151.099395 153.086682 
L 239.241809 132.344416 
L 244.147709 256.163272 
L 90.05123 236.929372 
L 138.779101 69.726016 
L 311.318182 146.792486 
L 207.16486 306.000191 
L 67.183012 185.919717 
L 196.403365 77.905835 
L 271.903683 199.512188 
L 166.722897 240.161132 
L 155.082515 166.416242 
L 190.850121 176.211774 
L 169.93606 167.589147 
L 224.15934 147.873133 
L 231.89289 242.342276 
L 101.693358 228.383649 
L 144.333698 77.572289 
L 307.963752 149.971042 
L 205.168292 307.8 
L 60.080045 183.981144 
L 199.523479 66.128352 
L 287.914634 204.672786 
L 158.694281 258.701662 
L 134.784656 155.559268 
L 204.67533 156.265239 
L 188.864878 183.257742 
L 207.16486 164.087812 
L 218.545347 225.875291 
L 116.775828 218.598802 
L 151.099395 89.428767 
L 300.076403 154.116705 
L 202.534395 304.928065 
L 57.681818 181.8 
L 202.534395 58.671935 
L 300.076403 209.483295 
L 151.099395 274.171233 
L 116.775828 145.001198 
L 218.545347 137.724709 
L 207.16486 199.512188 
L 188.864878 180.342258 
L 204.67533 207.334761 
L 134.784656 208.040732 
L 158.694281 104.898338 
L 287.914634 158.927214 
L 199.523479 297.471648 
L 60.080045 179.618856 
L 205.168292 55.8 
L 307.963752 213.628958 
L 144.333698 286.027711 
L 101.693358 135.216351 
L 231.89289 121.257724 
L 224.15934 215.726867 
L 169.93606 196.010853 
L 190.850121 187.388226 
L 155.082515 197.183758 
L 166.722897 123.438868 
L 271.903683 164.087812 
L 196.403365 285.694165 
L 67.183012 177.680283 
L 207.16486 57.599809 
L 311.318182 216.807514 
L 138.779101 293.873984 
L 90.05123 126.670628 
L 244.147709 107.436728 
L 239.241809 231.255584 
L 151.099395 210.513318 
L 177.610422 166.773487 
L 176.932034 186.489501 
L 174.795449 144.382816 
L 252.620173 169.288177 
L 193.433551 270.02557 
L 78.719191 176.211774 
L 208.287096 63.979819 
L 310.056616 218.746088 
L 134.784656 297.471648 
L 82.222026 119.799982 
L 254.761107 96.71852 
L 251.898286 245.457916 
L 133.091919 223.336902 
L 165.448653 146.270432 
L 199.523479 176.387097 
L 182.546027 166.962074 
L 230.770654 174.238563 
L 190.850121 251.046142 
L 94.247921 175.411469 
L 208.33621 74.674076 
L 304.273094 219.217184 
L 132.648071 296.748246 
L 78.424791 114.989474 
L 263.230325 89.428767 
L 261.725366 257.726034 
L 116.637119 234.05511 
L 154.790052 126.670628 
L 222.005727 167.255602 
L 189.648994 190.337065 
L 207.16486 178.68436 
L 188.8522 229.464296 
L 113.176739 175.43542 
L 207.16486 89.253444 
L 294.233486 218.05297 
L 132.598957 291.79786 
L 78.719191 112.553858 
L 269.12169 85.752108 
L 268.443303 267.510881 
L 102.415245 242.342276 
L 145.977321 108.745901 
L 243.519329 159.409328 
L 195.832821 213.628958 
L 182.684735 182.418382 
L 187.590634 206.089306 
L 134.784656 176.387097 
L 204.688008 107.1432 
L 280.363469 215.157083 
L 134.784656 282.8751 
L 83.006142 112.72066 
L 272.091505 85.728157 
L 271.903683 274.346556 
L 91.034758 247.983453 
L 139.259385 93.217184 
L 263.230325 153.086682 
L 200.890772 235.953744 
L 158.250433 185.290317 
L 187.159464 181.8 
L 158.250433 178.309683 
L 200.890772 127.646256 
L 263.230325 210.513318 
L 139.259385 270.382816 
L 91.034758 115.616547 
L 271.903683 89.253444 
L 272.091505 277.871843 
L 83.006142 250.87934 
L 134.784656 80.7249 
L 280.363469 148.442917 
L 204.688008 256.4568 
L 134.784656 187.212903 
L 187.590634 157.510694 
L 182.684735 181.181618 
L 195.832821 149.971042 
L 243.519329 204.190672 
L 145.977321 254.854099 
L 102.415245 121.257724 
L 268.443303 96.089119 
L 269.12169 277.847892 
L 78.719191 251.046142 
L 132.598957 71.80214 
L 294.233486 145.54703 
L 207.16486 274.346556 
L 113.176739 188.16458 
L 188.8522 134.135704 
L 207.16486 184.91564 
L 189.648994 173.262935 
L 222.005727 196.344398 
L 154.790052 236.929372 
L 116.637119 129.54489 
L 261.725366 105.873966 
L 263.230325 274.171233 
L 78.424791 248.610526 
L 132.648071 66.851754 
L 304.273094 144.382816 
L 208.33621 288.925924 
L 94.247921 188.188531 
L 190.850121 112.553858 
L 230.770654 189.361437 
L 182.546027 196.637926 
L 199.523479 187.212903 
L 165.448653 217.329568 
L 133.091919 140.263098 
L 251.898286 118.142084 
L 254.761107 266.88148 
L 82.222026 243.800018 
L 134.784656 66.128352 
L 310.056616 144.853912 
L 208.287096 299.620181 
L 78.719191 187.388226 
L 193.433551 93.57443 
L 252.620173 194.311823 
L 174.795449 219.217184 
L 176.932034 177.110499 
L 177.610422 196.826513 
L 151.099395 153.086682 
L 239.241809 132.344416 
L 244.147709 256.163272 
L 90.05123 236.929372 
L 138.779101 69.726016 
L 311.318182 146.792486 
L 207.16486 306.000191 
L 67.183012 185.919717 
L 196.403365 77.905835 
L 271.903683 199.512188 
L 166.722897 240.161132 
L 155.082515 166.416242 
L 190.850121 176.211774 
L 169.93606 167.589147 
L 224.15934 147.873133 
L 231.89289 242.342276 
L 101.693358 228.383649 
L 144.333698 77.572289 
L 307.963752 149.971042 
L 205.168292 307.8 
L 60.080045 183.981144 
L 199.523479 66.128352 
L 287.914634 204.672786 
L 158.694281 258.701662 
L 134.784656 155.559268 
L 204.67533 156.265239 
L 188.864878 183.257742 
L 207.16486 164.087812 
L 218.545347 225.875291 
L 116.775828 218.598802 
L 151.099395 89.428767 
L 300.076403 154.116705 
L 202.534395 304.928065 
L 57.681818 181.8 
L 202.534395 58.671935 
L 300.076403 209.483295 
L 151.099395 274.171233 
L 116.775828 145.001198 
L 218.545347 137.724709 
L 207.16486 199.512188 
L 188.864878 180.342258 
L 204.67533 207.334761 
L 134.784656 208.040732 
L 158.694281 104.898338 
L 287.914634 158.927214 
L 199.523479 297.471648 
L 60.080045 179.618856 
L 205.168292 55.8 
L 307.963752 213.628958 
L 144.333698 286.027711 
L 101.693358 135.216351 
L 231.89289 121.257724 
L 224.15934 215.726867 
L 169.93606 196.010853 
L 190.850121 187.388226 
L 155.082515 197.183758 
L 166.722897 123.438868 
L 271.903683 164.087812 
L 196.403365 285.694165 
L 67.183012 177.680283 
L 207.16486 57.599809 
L 311.318182 216.807514 
L 138.779101 293.873984 
L 90.05123 126.670628 
L 244.147709 107.436728 
L 239.241809 231.255584 
L 151.099395 210.513318 
L 177.610422 166.773487 
L 176.932034 186.489501 
L 174.795449 144.382816 
L 252.620173 169.288177 
L 193.433551 270.02557 
L 78.719191 176.211774 
L 208.287096 63.979819 
L 310.056616 218.746088 
L 134.784656 297.471648 
L 82.222026 119.799982 
L 254.761107 96.71852 
L 251.898286 245.457916 
L 133.091919 223.336902 
L 165.448653 146.270432 
L 199.523479 176.387097 
L 182.546027 166.962074 
L 230.770654 174.238563 
L 190.850121 251.046142 
L 94.247921 175.411469 
L 208.33621 74.674076 
L 304.273094 219.217184 
L 132.648071 296.748246 
L 78.424791 114.989474 
L 263.230325 89.428767 
L 261.725366 257.726034 
L 116.637119 234.05511 
L 154.790052 126.670628 
L 222.005727 167.255602 
L 189.648994 190.337065 
L 207.16486 178.68436 
L 188.8522 229.464296 
L 113.176739 175.43542 
L 207.16486 89.253444 
L 294.233486 218.05297 
L 132.598957 291.79786 
L 78.719191 112.553858 
L 269.12169 85.752108 
L 268.443303 267.510881 
L 102.415245 242.342276 
L 145.977321 108.745901 
L 243.519329 159.409328 
L 195.832821 213.628958 
L 182.684735 182.418382 
L 187.590634 206.089306 
L 134.784656 176.387097 
L 204.688008 107.1432 
L 280.363469 215.157083 
L 134.784656 282.8751 
L 83.006142 112.72066 
L 272.091505 85.728157 
L 271.903683 274.346556 
L 91.034758 247.983453 
L 139.259385 93.217184 
L 263.230325 153.086682 
L 200.890772 235.953744 
L 158.250433 185.290317 
L 158.250433 185.290317 
" clip-path="url(#p2e131aa489)" style="fill: none; stroke: #0000ff; stroke-width: 1.5; stroke-linecap: square"/>
   </g>
   <g id="text_1">
    <!-- n = 11 | d = 97 -->
    <g transform="translate(138.100313 37.2) scale(0.12 -0.12)">
     <defs>
      <path id="DejaVuSans-6e" d="M 3513 2113 
L 3513 0 
L 2938 0 
L 2938 2094 
Q 2938 2591 2744 2837 
Q 2550 3084 2163 3084 
Q 1697 3084 1428 2787 
Q 1159 2491 1159 1978 
L 1159 0 
L 581 0 
L 581 3500 
L 1159 3500 
L 1159 2956 
Q 1366 3272 1645 3428 
Q 1925 3584 2291 3584 
Q 2894 3584 3203 3211 
Q 3513 2838 3513 2113 
z
" transform="scale(0.015625)"/>
      <path id="DejaVuSans-20" transform="scale(0.015625)"/>
      <path id="DejaVuSans-3d" d="M 678 2906 
L 4684 2906 
L 4684 2381 
L 678 2381 
L 678 2906 
z
M 678 1631 
L 4684 1631 
L 4684 1100 
L 678 1100 
L 678 1631 
z
" transform="scale(0.015625)"/>
      <path id="DejaVuSans-31" d="M 794 531 
L 1825 531 
L 1825 4091 
L 703 3866 
L 703 4441 
L 1819 4666 
L 2450 4666 
L 2450 531 
L 3481 531 
L 3481 0 
L 794 0 
L 794 531 
z
" transform="scale(0.015625)"/>
      <path id="DejaVuSans-7c" d="M 1344 4891 
L 1344 -1509 
L 813 -1509 
L 813 4891 
L 1344 4891 
z
" transform="scale(0.015625)"/>
      <path id="DejaVuSans-64" d="M 2906 2969 
L 2906 4863 
L 3481 4863 
L 3481 0 
L 2906 0 
L 2906 525 
Q 2725 213 2448 61 
Q 2172 -91 1784 -91 
Q 1150 -91 751 415 
Q 353 922 353 1747 
Q 353 2572 751 3078 
Q 1150 3584 1784 3584 
Q 2172 3584 2448 3432 
Q 2725 3281 2906 2969 
z
M 947 1747 
Q 947 1113 1208 752 
Q 1469 391 1925 391 
Q 2381 391 2643 752 
Q 2906 1113 2906 1747 
Q 2906 2381 2643 2742 
Q 2381 3103 1925 3103 
Q 1469 3103 1208 2742 
Q 947 2381 947 1747 
z
" transform="scale(0.015625)"/>
      <path id="DejaVuSans-39" d="M 703 97 
L 703 672 
Q 941 559 1184 500 
Q 1428 441 1663 441 
Q 2288 441 2617 861 
Q 2947 1281 2994 2138 
Q 2813 1869 2534 1725 
Q 2256 1581 1919 1581 
Q 1219 1581 811 2004 
Q 403 2428 403 3163 
Q 403 3881 828 4315 
Q 1253 4750 1959 4750 
Q 2769 4750 3195 4129 
Q 3622 3509 3622 2328 
Q 3622 1225 3098 567 
Q 2575 -91 1691 -91 
Q 1453 -91 1209 -44 
Q 966 3 703 97 
z
M 1959 2075 
Q 2384 2075 2632 2365 
Q 2881 2656 2881 3163 
Q 2881 3666 2632 3958 
Q 2384 4250 1959 4250 
Q 1534 4250 1286 3958 
Q 1038 3666 1038 3163 
Q 1038 2656 1286 2365 
Q 1534 2075 1959 2075 
z
" transform="scale(0.015625)"/>
      <path id="DejaVuSans-37" d="M 525 4666 
L 3525 4666 
L 3525 4397 
L 1831 0 
L 1172 0 
L 2766 4134 
L 525 4134 
L 525 4666 
z
" transform="scale(0.015625)"/>
     </defs>
     <use xlink:href="#DejaVuSans-6e"/>
     <use xlink:href="#DejaVuSans-20" x="63.378906"/>
     <use xlink:href="#DejaVuSans-3d" x="95.166016"/>
     <use xlink:href="#DejaVuSans-20" x="178.955078"/>
     <use xlink:href="#DejaVuSans-31" x="210.742188"/>
     <use xlink:href="#DejaVuSans-31" x="274.365234"/>
     <use xlink:href="#DejaVuSans-20" x="337.988281"/>
     <use xlink:href="#DejaVuSans-7c" x="369.775391"/>
     <use xlink:href="#DejaVuSans-20" x="403.466797"/>
     <use xlink:href="#DejaVuSans-64" x="435.253906"/>
     <use xlink:href="#DejaVuSans-20" x="498.730469"/>
     <use xlink:href="#DejaVuSans-3d" x="530.517578"/>
     <use xlink:href="#DejaVuSans-20" x="614.306641"/>
     <use xlink:href="#DejaVuSans-39" x="646.09375"/>
     <use xlink:href="#DejaVuSans-37" x="709.716797"/>
    </g>
   </g>
  </g>
 </g>
 <defs>
  <clipPath id="p2e131aa489">
   <rect x="45" y="43.2" width="279" height="277.2"/>
  </clipPath>
 </defs>
</svg>
