<?xml version="1.0" encoding="utf-8" ?>
<svg baseProfile="full" height="700" version="1.1" width="700" xmlns="http://www.w3.org/2000/svg" xmlns:ev="http://www.w3.org/2001/xml-events" xmlns:xlink="http://www.w3.org/1999/xlink"><defs /><polyline clip-path="url(#border_clip)" fill="none" points="350.5,350.5 432.4133287010581,112.60641975975179 186.79578101903147,194.65256085590056 168.60712575551827,423.3141342805752 342.66246496381547,512.214883793851 461.1938241512985,407.79549616524565 417.35313783198234,298.18925421675976 340.3975305378258,308.25992843159145 349.4141292956949,350.28615529156104 374.58425294417606,317.0232685987592 309.52528645886764,278.5936193228166 228.35617626215048,361.3675464374775 297.0597736948695,501.35072112217904 489.99495683612497,485.67391961326155 559.7103100424816,268.89136585417674 364.8340976620929,100.52183452363005 110.7618859323155,223.70774812717366 123.24162848266269,525.1024984226747 416.8540856287572,639.2098039945002 644.2795815639276,411.0611522150502 526.4735795495177,110.41113224174379 209.43543991171464,97.77183100576136 75.9810760381323,372.47761531266235 262.9339079781252,590.899177407856 515.0919313516022,512.8428842832578 539.227551479509,278.79939094410116 361.638330362142,182.31503017461816 234.50192627761902,287.8309958774492 276.65603167733207,406.2018314935988 361.547163345361,400.5938353469175 359.3682501128839,352.41012837904594 330.55587753111894,377.2115592001267 386.5092010227552,416.37673688072255 465.52274471170875,342.31537579909264 404.2206044129009,206.98151798671475 217.75190317932814,217.22721826726703 144.90587317370836,426.5329516361327 332.0783326614859,595.7221490968182 584.8907779822744,479.8249315011549 578.8397320762872,181.40943549987895 289.5485863954511,61.993550002195775 58.07352499862543,284.800675972976 169.76811533049985,588.140746706019" stroke="#ff0000" stroke-linecap="round" stroke-width="1" /><polyline clip-path="url(#border_clip)" fill="none" points="169.76811533049985,588.140746706019 488.00933081502444,607.4433353530072 628.4210151457177,333.19505412479305 443.7680449042798,107.89043766453739 185.31417611937937,181.69903975241078 155.0558827702794,420.8190732347986 335.83944135451554,524.9683669968556 471.56379056746795,418.701557584765 431.4211494452849,291.67797483654954 338.79072394182776,292.5435779460187 333.9177533376056,346.61997759888544 366.05911485529805,330.4131426955274 319.2534063732216,290.85094866842246 242.7339470295259,356.2530496084539 296.7807765165837,486.62507757410935 476.52169633821563,481.58089198233813 552.201793322517,279.9395820252945 372.82940527012084,110.27149168374419 121.63376040798337,218.8855373466989 121.36529852314717,513.9791666591182 406.037455140878,638.4985635770897 641.2782623763378,421.25861957475126 535.8281180098276,115.5660933793529 216.74495314593315,89.57157287710919 69.45339646932808,363.0099263315967 251.4935419540828,595.022352663424 515.9872157005298,525.7087563486457 552.5305374741893,281.82553662757846 368.89604961357577,169.94508247343396 224.61645135717558,276.6175886948237 262.42775540662603,412.1672669670953 362.58846758836984,416.3147393404657 374.71521038620654,356.6201096759025 339.56388072053954,364.1137700336012 377.1955965953177,403.73310270191575 450.88558968491157,346.92163240950015 403.93414675703133,221.81658449753297 231.17134615499347,221.8999381053517 152.96130375157364,415.7028600636459 324.4524831565388,585.5057406217084 573.6753965235561,484.1538666792573 580.1396659152539,192.71929182126706 300.3748859353079,63.31382748228816" stroke="#ff0000" stroke-linecap="round" stroke-width="1" /><polyline clip-path="url(#border_clip)" fill="none" points="300.3748859353079,63.31382748228816 61.661398684113806,274.7733279765294 160.748558389209,582.475338699137 480.3114751813156,615.1750075920318 634.3903405499249,342.8956792963547 455.26851357463414,104.3642650751803 185.00200365889944,168.94656159566279 142.02498672558616,417.27224104298233 328.1638036121573,536.934837785195 480.9504042788214,430.2005075264929 445.7846542022689,286.2659519462761 338.3150276414712,276.8443053395817 318.7453461853506,341.87357779881773 356.5825072450962,343.1968701717786 328.1355206149503,303.8609560489481 257.60656842104106,352.1655989763332 297.6359929591469,471.7064808973999 463.18178052050285,476.3326713808111 543.61074284329,290.52814019470713 380.06659023490283,120.93722669129775 133.170549995946,215.06334582594874 120.64843291007105,502.50774457313065 395.2272823875095,636.5698806073772 637.1116984311132,431.0912895183839 544.491341246024,121.72748920887256 224.81125222362343,82.32491420559376 64.05259143269927,353.1001163266561 239.95866972550135,597.9484679454705 515.7206218346425,538.322273895444 565.2660037949013,285.8816180316454 376.9719724404739,158.40126271155037 215.74209041727568,264.85550236919784 247.9543596863117,417.01941725739243 362.4995986903895,431.9662207312039 389.68827623734717,361.8944488092539 349.4938817207398,351.6654361809558 368.7610595229003,390.37738263113414 435.8018674652227,350.480769398227 402.508009537092,236.79268904605448 244.40622479850865,227.71833573600242 162.07565052424795,405.37873133511556 317.62238499055576,574.4089461002 561.8398829205603,487.4568378819746" stroke="#ff0000" stroke-linecap="round" stroke-width="1" /><polyline clip-path="url(#border_clip)" fill="none" points="561.8398829205603,487.4568378819746 580.2679083529873,204.3270411062026 311.14318512161884,65.84913346894785 66.39769895295285,265.1595207461763 152.4623528416169,575.8333526429012 471.8973415916692,621.9211322103151 639.2135302531071,352.99049981269627 466.8119889371021,102.04011487566348 185.84189028786992,156.4973430753138 129.6077511801847,412.7193641390967 319.70605062564704,548.037636920684 489.3001248705564,442.2027643608223 460.3423514127639,281.97901328608873 338.9662728562622,261.2666990551567 303.99601240046894,336.0808560296231 346.2152447101103,355.28916477992885 336.10731265152776,317.54103950206206 272.87662563435515,349.143206464237 299.6340664507001,456.69896955723226 450.0771995379771,469.9505427082463 533.986429254864,300.5655012193768 386.4719999324712,132.4460070406708 145.28156267043434,212.29105538262604 121.11324023735565,490.7891367835105 384.5265037105728,633.4308816415801 631.8156878753458,440.46247115288537 552.3805541223853,128.83375976189637 233.5519421537037,76.0939064350847 59.815023096478285,342.8448348698847 228.43244221130078,599.6698955897514 514.3140328998458,550.5821329296097 577.3427907216603,290.9178450489871 385.79231549155287,147.75701364618763 207.92836989636172,252.63655543096073 233.3381525110733,420.7369363735786 361.28930773301147,447.44399468081656 404.18993198553494,368.19493764440807 360.28138444336173,339.94909998637536 361.2662316730483,376.39493246670605 420.37059326409263,352.9590800574932 399.93813306323375,251.80547817439697 257.3555465806009,234.6566394463143 172.19562133092538,395.6498745897039" stroke="#ff0000" stroke-linecap="round" stroke-width="1" /><polyline clip-path="url(#border_clip)" fill="none" points="172.19562133092538,395.6498745897039 311.6584100402626,562.5080231314962 549.4770914606764,489.6880261788074 579.2067620268463,216.1308586692525 321.75094676858265,69.58775338960277 72.24234135191296,256.0542588889865 144.98935920619516,568.2799792659462 462.8520006855144,627.6234066956777 642.8585756872221,363.3813658416452 478.2951179431228,100.92101577064338 187.80748747130002,144.45157689928232 117.89300416108401,407.21419738267787 310.54310488617716,558.2066806274408 496.56753530751394,454.61445245003847 474.9911252715129,278.8339825989576 340.7311439728252,245.91453752923962 289.76548935648424,329.2842538386858 335.02537956189246,366.61038855810324 343.1119336167092,331.8032550457873 288.44369546165836,347.2152070965193 302.7744637989195,441.70700865266565 437.30775071942026,462.46471557106395 523.3860632792725,309.96476152896577 391.97868237205427,144.71849854696748 157.87196374041324,210.6103307650371 122.77287066979972,478.9258877740202 374.0370549050518,629.0978469648642 625.4345227328749,449.27903375828095 559.4188883087418,136.81621225090925 242.87944475270137,70.93298853824945 56.7682841949283,332.3435383416125 217.0182111690926,600.1882105935558 511.79820967010585,562.3894484572204 588.6745752208396,296.8766047592449 395.2771686174472,138.07892414227197 201.21651004723208,240.05649678930803 218.68285640924466,423.3075544555219 358.9754481404075,462.644990965804 418.12640450630505,375.4749841093019 371.85491259709056,329.04134024752614 354.7640580158247,361.87611364947014 404.69340311955045,354.33165893978685 396.2296435502287,266.75057870194485" stroke="#ff0000" stroke-linecap="round" stroke-width="1" /><polyline clip-path="url(#border_clip)" fill="none" points="396.2296435502287,266.75057870194485 269.9209045933525,242.68025934914078 183.26019750605357,386.6006169875897 306.62395797666176,549.8852279648916 536.6836515161266,490.81000416320524 576.9476510388286,228.02768189458615 332.09703752320576,74.50887247901352 79.14691324837122,247.54861530446556 138.40330190446127,559.8872778654046 453.2653651792005,632.2313626698415 645.3023535508025,373.9677107293485 489.6147535545981,101.00079332525428 190.86368398523237,132.9066464668927 106.96439530123999,400.8180975022028 300.75770685693215,567.3790040442466 502.715691279456,467.33813713173015 489.6268488144447,276.8385531529744 343.58728537650535,230.88998234234532 276.1454038356843,321.53442279274907 323.08767311218423,377.0871706547029 349.1004456729333,346.554999243417 304.2051265721405,346.4020275384865 307.0474746302464,426.83467607670326 424.9702580681692,453.9140939441228 511.8743534562203,318.6443361566135 396.5269156719518,157.66968312866067 170.84351837574826,210.05428717675156 125.63130772033048,467.0213756232698 363.85906740805365,623.5960857223906 618.0206412272744,457.45214216094143 565.5359088647313,145.59956300086836 252.70169035054832,66.88855900670393 54.930983737211136,321.69770521634433 205.81871587933338,599.5141735666443 508.21254351258995,573.6485296272126 599.180544244585,303.6929182160276 405.3411239399694,129.42621305414622 195.63910845116936,227.21425602637703 204.0927996895226,424.7281685662791 355.5848332678614,477.4681553050342 431.40839124748186,383.67997613625636 384.13656525294675,319.0121773794016 349.29937388066577,346.9155917543081" stroke="#ff0000" stroke-linecap="round" stroke-width="1" /><polyline clip-path="url(#border_clip)" fill="none" points="349.29937388066577,346.9155917543081 388.8737641331846,354.5825985829399 391.39681768011434,281.52441080384557 282.0072471081605,251.74605202561776 195.20110592567667,378.3096409020013 302.5749546326435,536.6281748848207 523.5592110213845,490.79403525080716 573.4911933931436,239.91402051624675 342.0825253702336,80.58273610139378 87.05505371551499,239.7290119154942 132.77118725624427,550.7336080585832 443.2314798973317,635.7027628629913 646.5308051591719,384.64734442290586 500.6687664986221,102.2641229897394 194.96688700600484,121.95636242825452 96.89974342138083,393.5995369725682 290.4377636969661,575.4992489984015 507.7164042081657,480.27358767898335 504.14519588543703,275.99123281169426 347.5034791636614,216.29278398235294 263.22256082562876,312.88982869679705 310.4830143448326,386.6529770115974 354.03220332705365,361.69972828218283 320.0568372093824,346.7150244918903 312.43428275629117,412.1848517911953 413.15781515238245,444.3459777419153 499.5230052287116,326.5286000259575 400.06468086570897,171.20952100056516 184.09536064469356,210.64722474202898 129.68333173984374,455.1789993013147 354.0900786620575,616.9597404578008 609.6342164325492,464.8979584891247 570.6681705246677,155.1025309009476 262.92284463106733,63.998610689395264 54.312602949188886,311.0100354861023 194.93527454193583,597.6676418353408 503.6047417951036,584.2676299745879 608.7860249902249,311.29495495232567 415.89394805924127,121.85027075095672 191.21989104328892,214.2111686769897 189.67210285065136,425.0048616519237 351.1530237369527,491.81523495052346 443.95175322787486,392.7477085074008" stroke="#ff0000" stroke-linecap="round" stroke-width="1" /><polyline clip-path="url(#border_clip)" fill="none" points="443.95175322787486,392.7477085074008 397.0426227970181,309.9245299993667 344.90855581470123,331.61160124902153 373.01617040009575,353.7051156773969 385.4629754460631,296.0249947952957 293.523620754533,261.8026521563694 207.94334780934275,370.84936540934774 299.5594089496057,522.8291537364595 510.20565642699665,489.6203049296181 568.8472015068932,251.68677015258504 351.611459853554,87.77087996877526 95.90289554001714,232.67653680133066 128.152774004656,540.9030122904976 432.84777948458344,638.0039337470948 646.5390449286551,395.3172596325089 511.35684913544924,104.6866546920653 200.06536958936005,111.69022710793584 87.77042966348938,385.6335621350278 279.67565743994766,582.5200922836787 511.5504557026523,493.318562263374 518.4424547570668,276.2813610807349 352.43989234221425,202.21950643764285 251.07827008188747,303.4162945202513 297.2977905248016,395.24862644703626 357.8751697143658,377.1377079374244 335.8941240598604,348.1563942121435 318.9071089102632,397.858416563054 401.95905731260507,433.81569863387534 486.41016528872194,333.5484824722535 402.5480743346878,185.2436520934168 197.52478304119646,212.40443199335357 134.91455540738897,443.50136589757886 344.82426283718183,609.2315225886375 600.3426844726746,471.53830481387587 574.7597193256275,165.23847772831468 273.4440649139469,62.29243133905857 54.91342257554288,300.38364049179694 184.46698671811524,594.6774093974575 498.0304482012315,594.1596668893799 617.4230671856585,319.60460117376977 426.84129213413036,115.39426187372223 187.9735325963685,201.15018256006408 175.52386652329696,424.1528495222117" stroke="#ff0000" stroke-linecap="round" stroke-width="1" /><polyline clip-path="url(#border_clip)" fill="none" points="175.52386652329696,424.1528495222117 345.7240461835081,505.5915423922919 455.67816759472964,402.6088692618456 410.48419852744826,301.83372718661155 341.6192387756195,316.0651822753638 357.22533092552555,351.70160568724003 378.46030211489534,310.1527453060227 304.383881501051,272.7908685468916 221.40578013909587,364.2853769211883 297.61703197351517,508.5844109342645 496.7263152371252,487.27808214968405 563.0346107882674,263.2440227243375 360.5916289036743,96.02642845395962 105.61956589140135,226.46630308067785 124.6001005174632,530.4845539328252 422.2143196111448,639.1100312231838 645.3313971458418,405.87444441982444 521.5813051448781,108.23520802184873 206.09968181727797,102.19273255224803 79.64084092663859,377.00119980362575 268.56751804515847,588.4026110906156 514.2077417850652,506.3696087750206 532.4163370361352,277.689197995771 358.3483915843355,188.7627766894262 239.7877157279077,293.18648560884293 283.6232146709062,402.82274909899076" stroke="#ff0000" stroke-linecap="round" stroke-width="1" /></svg>