<?xml version="1.0" encoding="utf-8" standalone="no"?>
<!DOCTYPE svg PUBLIC "-//W3C//DTD SVG 1.1//EN"
  "http://www.w3.org/Graphics/SVG/1.1/DTD/svg11.dtd">
<svg xmlns:xlink="http://www.w3.org/1999/xlink" width="360pt" height="360pt" viewBox="0 0 360 360" xmlns="http://www.w3.org/2000/svg" version="1.1">
 <metadata>
  <rdf:RDF xmlns:dc="http://purl.org/dc/elements/1.1/" xmlns:cc="http://creativecommons.org/ns#" xmlns:rdf="http://www.w3.org/1999/02/22-rdf-syntax-ns#">
   <cc:Work>
    <dc:type rdf:resource="http://purl.org/dc/dcmitype/StillImage"/>
    <dc:date>2026-01-09T18:04:48.599164</dc:date>
    <dc:format>image/svg+xml</dc:format>
    <dc:creator>
     <cc:Agent>
      <dc:title>Matplotlib v3.8.3, https://matplotlib.org/</dc:title>
     </cc:Agent>
    </dc:creator>
   </cc:Work>
  </rdf:RDF>
 </metadata>
 <defs>
  <style type="text/css">*{stroke-linejoin: round; stroke-linecap: butt}</style>
 </defs>
 <g id="figure_1">
  <g id="patch_1">
   <path d="M 0 360 
L 360 360 
L 360 0 
L 0 0 
L 0 360 
z
" style="fill: none"/>
  </g>
  <g id="axes_1">
   <g id="line2d_1">
    <path d="M 184.5 181.8 
L 285.959741 57.315992 
L 250.074539 167.951626 
L 65.689156 121.653414 
L 134.679933 70.624217 
L 163.170347 260.889778 
L 57.681818 273.344359 
L 201.705073 182.695862 
L 306.316287 290.77624 
L 192.467689 231.781452 
L 255.870409 58.980355 
L 287.462762 142.53129 
L 92.361198 152.055435 
L 102.491951 56.333397 
L 180.917955 215.661004 
L 67.952609 297.595472 
L 150.419119 185.358935 
L 310.781321 263.278965 
L 214.437712 273.344359 
L 224.023701 79.501514 
L 308.117175 110.890045 
L 134.193993 173.883716 
L 74.816122 60.769624 
L 183.59832 164.705927 
L 92.361198 307.8 
L 104.896652 202.992042 
L 296.397703 231.298648 
L 245.037149 299.844322 
L 198.438299 116.648523 
L 309.792346 80.994838 
L 184.5 181.8 
L 59.207654 80.994838 
L 170.561701 116.648523 
L 123.962851 299.844322 
L 72.602297 231.298648 
L 264.103348 202.992042 
L 276.638802 307.8 
L 185.40168 164.705927 
L 294.183878 60.769624 
L 234.806007 173.883716 
L 60.882825 110.890045 
L 144.976299 79.501514 
L 154.562288 273.344359 
L 58.218679 263.278965 
L 218.580881 185.358935 
L 301.047391 297.595472 
L 188.082045 215.661004 
L 266.508049 56.333397 
L 276.638802 152.055435 
L 81.537238 142.53129 
L 113.129591 58.980355 
L 176.532311 231.781452 
L 62.683713 290.77624 
L 167.294927 182.695862 
L 311.318182 273.344359 
L 205.829653 260.889778 
L 234.320067 70.624217 
L 303.310844 121.653414 
L 118.925461 167.951626 
L 83.040259 57.315992 
L 184.5 181.8 
L 83.040259 306.284008 
L 118.925461 195.648374 
L 303.310844 241.946586 
L 234.320067 292.975783 
L 205.829653 102.710222 
L 311.318182 90.255641 
L 167.294927 180.904138 
L 62.683713 72.82376 
L 176.532311 131.818548 
L 113.129591 304.619645 
L 81.537238 221.06871 
L 276.638802 211.544565 
L 266.508049 307.266603 
L 188.082045 147.938996 
L 301.047391 66.004528 
L 218.580881 178.241065 
L 58.218679 100.321035 
L 154.562288 90.255641 
L 144.976299 284.098486 
L 60.882825 252.709955 
L 234.806007 189.716284 
L 294.183878 302.830376 
L 185.40168 198.894073 
L 276.638802 55.8 
L 264.103348 160.607958 
L 72.602297 132.301352 
L 123.962851 63.755678 
L 170.561701 246.951477 
L 59.207654 282.605162 
L 184.5 181.8 
L 309.792346 282.605162 
L 198.438299 246.951477 
L 245.037149 63.755678 
L 296.397703 132.301352 
L 104.896652 160.607958 
L 92.361198 55.8 
L 183.59832 198.894073 
L 74.816122 302.830376 
L 134.193993 189.716284 
L 308.117175 252.709955 
L 224.023701 284.098486 
L 214.437712 90.255641 
L 310.781321 100.321035 
L 150.419119 178.241065 
L 67.952609 66.004528 
L 180.917955 147.938996 
L 102.491951 307.266603 
L 92.361198 211.544565 
L 287.462762 221.06871 
L 255.870409 304.619645 
L 192.467689 131.818548 
L 306.316287 72.82376 
L 201.705073 180.904138 
L 57.681818 90.255641 
L 163.170347 102.710222 
L 134.679933 292.975783 
L 65.689156 241.946586 
L 250.074539 195.648374 
L 285.959741 306.284008 
L 184.5 181.8 
L 285.959741 57.315992 
L 250.074539 167.951626 
L 65.689156 121.653414 
L 134.679933 70.624217 
L 163.170347 260.889778 
L 57.681818 273.344359 
L 201.705073 182.695862 
L 306.316287 290.77624 
L 192.467689 231.781452 
L 255.870409 58.980355 
L 287.462762 142.53129 
L 92.361198 152.055435 
L 102.491951 56.333397 
L 180.917955 215.661004 
L 67.952609 297.595472 
L 150.419119 185.358935 
L 310.781321 263.278965 
L 214.437712 273.344359 
L 224.023701 79.501514 
L 308.117175 110.890045 
L 134.193993 173.883716 
L 74.816122 60.769624 
L 183.59832 164.705927 
L 92.361198 307.8 
L 104.896652 202.992042 
L 296.397703 231.298648 
L 245.037149 299.844322 
L 198.438299 116.648523 
L 309.792346 80.994838 
L 184.5 181.8 
L 59.207654 80.994838 
L 170.561701 116.648523 
L 123.962851 299.844322 
L 72.602297 231.298648 
L 264.103348 202.992042 
L 276.638802 307.8 
L 185.40168 164.705927 
L 294.183878 60.769624 
L 234.806007 173.883716 
L 60.882825 110.890045 
L 144.976299 79.501514 
L 154.562288 273.344359 
L 58.218679 263.278965 
L 218.580881 185.358935 
L 301.047391 297.595472 
L 188.082045 215.661004 
L 266.508049 56.333397 
L 276.638802 152.055435 
L 81.537238 142.53129 
L 113.129591 58.980355 
L 176.532311 231.781452 
L 62.683713 290.77624 
L 167.294927 182.695862 
L 311.318182 273.344359 
L 205.829653 260.889778 
L 234.320067 70.624217 
L 303.310844 121.653414 
L 118.925461 167.951626 
L 83.040259 57.315992 
L 184.5 181.8 
L 83.040259 306.284008 
L 118.925461 195.648374 
L 303.310844 241.946586 
L 234.320067 292.975783 
L 205.829653 102.710222 
L 311.318182 90.255641 
L 167.294927 180.904138 
L 62.683713 72.82376 
L 176.532311 131.818548 
L 113.129591 304.619645 
L 81.537238 221.06871 
L 276.638802 211.544565 
L 266.508049 307.266603 
L 188.082045 147.938996 
L 301.047391 66.004528 
L 218.580881 178.241065 
L 58.218679 100.321035 
L 154.562288 90.255641 
L 144.976299 284.098486 
L 60.882825 252.709955 
L 234.806007 189.716284 
L 294.183878 302.830376 
L 185.40168 198.894073 
L 276.638802 55.8 
L 264.103348 160.607958 
L 72.602297 132.301352 
L 123.962851 63.755678 
L 170.561701 246.951477 
L 59.207654 282.605162 
L 184.5 181.8 
L 309.792346 282.605162 
L 198.438299 246.951477 
L 245.037149 63.755678 
L 296.397703 132.301352 
L 104.896652 160.607958 
L 92.361198 55.8 
L 183.59832 198.894073 
L 74.816122 302.830376 
L 134.193993 189.716284 
L 308.117175 252.709955 
L 224.023701 284.098486 
L 214.437712 90.255641 
L 310.781321 100.321035 
L 150.419119 178.241065 
L 67.952609 66.004528 
L 180.917955 147.938996 
L 102.491951 307.266603 
L 92.361198 211.544565 
L 287.462762 221.06871 
L 255.870409 304.619645 
L 192.467689 131.818548 
L 306.316287 72.82376 
L 201.705073 180.904138 
L 57.681818 90.255641 
L 163.170347 102.710222 
L 134.679933 292.975783 
L 65.689156 241.946586 
L 250.074539 195.648374 
L 285.959741 306.284008 
L 184.5 181.8 
L 285.959741 57.315992 
L 250.074539 167.951626 
L 65.689156 121.653414 
L 134.679933 70.624217 
L 163.170347 260.889778 
L 57.681818 273.344359 
L 201.705073 182.695862 
L 306.316287 290.77624 
L 192.467689 231.781452 
L 255.870409 58.980355 
L 287.462762 142.53129 
L 92.361198 152.055435 
L 102.491951 56.333397 
L 180.917955 215.661004 
L 67.952609 297.595472 
L 150.419119 185.358935 
L 310.781321 263.278965 
L 214.437712 273.344359 
L 224.023701 79.501514 
L 308.117175 110.890045 
L 134.193993 173.883716 
L 74.816122 60.769624 
L 183.59832 164.705927 
L 92.361198 307.8 
L 104.896652 202.992042 
L 296.397703 231.298648 
L 245.037149 299.844322 
L 198.438299 116.648523 
L 309.792346 80.994838 
L 184.5 181.8 
L 59.207654 80.994838 
L 170.561701 116.648523 
L 123.962851 299.844322 
L 72.602297 231.298648 
L 264.103348 202.992042 
L 276.638802 307.8 
L 185.40168 164.705927 
L 294.183878 60.769624 
L 234.806007 173.883716 
L 60.882825 110.890045 
L 144.976299 79.501514 
L 154.562288 273.344359 
L 58.218679 263.278965 
L 218.580881 185.358935 
L 301.047391 297.595472 
L 188.082045 215.661004 
L 266.508049 56.333397 
L 276.638802 152.055435 
L 81.537238 142.53129 
L 113.129591 58.980355 
L 176.532311 231.781452 
L 62.683713 290.77624 
L 167.294927 182.695862 
L 311.318182 273.344359 
L 205.829653 260.889778 
L 234.320067 70.624217 
L 303.310844 121.653414 
L 118.925461 167.951626 
L 83.040259 57.315992 
L 184.5 181.8 
L 83.040259 306.284008 
L 118.925461 195.648374 
L 303.310844 241.946586 
L 234.320067 292.975783 
L 205.829653 102.710222 
L 311.318182 90.255641 
L 167.294927 180.904138 
L 62.683713 72.82376 
L 176.532311 131.818548 
L 113.129591 304.619645 
L 81.537238 221.06871 
L 276.638802 211.544565 
L 266.508049 307.266603 
L 188.082045 147.938996 
L 301.047391 66.004528 
L 218.580881 178.241065 
L 58.218679 100.321035 
L 154.562288 90.255641 
L 144.976299 284.098486 
L 60.882825 252.709955 
L 234.806007 189.716284 
L 294.183878 302.830376 
L 185.40168 198.894073 
L 276.638802 55.8 
L 264.103348 160.607958 
L 72.602297 132.301352 
L 123.962851 63.755678 
L 170.561701 246.951477 
L 59.207654 282.605162 
L 184.5 181.8 
L 309.792346 282.605162 
L 198.438299 246.951477 
L 245.037149 63.755678 
L 296.397703 132.301352 
L 104.896652 160.607958 
L 92.361198 55.8 
L 183.59832 198.894073 
L 74.816122 302.830376 
L 134.193993 189.716284 
L 308.117175 252.709955 
L 224.023701 284.098486 
L 214.437712 90.255641 
L 310.781321 100.321035 
L 150.419119 178.241065 
L 67.952609 66.004528 
L 180.917955 147.938996 
L 102.491951 307.266603 
L 92.361198 211.544565 
L 287.462762 221.06871 
L 255.870409 304.619645 
L 192.467689 131.818548 
L 306.316287 72.82376 
L 201.705073 180.904138 
L 57.681818 90.255641 
L 163.170347 102.710222 
L 134.679933 292.975783 
L 65.689156 241.946586 
L 250.074539 195.648374 
L 285.959741 306.284008 
L 285.959741 306.284008 
" clip-path="url(#p3346a4de81)" style="fill: none; stroke: #0000ff; stroke-width: 1.5; stroke-linecap: square"/>
   </g>
   <g id="text_1">
    <!-- n = 2 | d = 39 -->
    <g transform="translate(141.917812 37.2) scale(0.12 -0.12)">
     <defs>
      <path id="DejaVuSans-6e" d="M 3513 2113 
L 3513 0 
L 2938 0 
L 2938 2094 
Q 2938 2591 2744 2837 
Q 2550 3084 2163 3084 
Q 1697 3084 1428 2787 
Q 1159 2491 1159 1978 
L 1159 0 
L 581 0 
L 581 3500 
L 1159 3500 
L 1159 2956 
Q 1366 3272 1645 3428 
Q 1925 3584 2291 3584 
Q 2894 3584 3203 3211 
Q 3513 2838 3513 2113 
z
" transform="scale(0.015625)"/>
      <path id="DejaVuSans-20" transform="scale(0.015625)"/>
      <path id="DejaVuSans-3d" d="M 678 2906 
L 4684 2906 
L 4684 2381 
L 678 2381 
L 678 2906 
z
M 678 1631 
L 4684 1631 
L 4684 1100 
L 678 1100 
L 678 1631 
z
" transform="scale(0.015625)"/>
      <path id="DejaVuSans-32" d="M 1228 531 
L 3431 531 
L 3431 0 
L 469 0 
L 469 531 
Q 828 903 1448 1529 
Q 2069 2156 2228 2338 
Q 2531 2678 2651 2914 
Q 2772 3150 2772 3378 
Q 2772 3750 2511 3984 
Q 2250 4219 1831 4219 
Q 1534 4219 1204 4116 
Q 875 4013 500 3803 
L 500 4441 
Q 881 4594 1212 4672 
Q 1544 4750 1819 4750 
Q 2544 4750 2975 4387 
Q 3406 4025 3406 3419 
Q 3406 3131 3298 2873 
Q 3191 2616 2906 2266 
Q 2828 2175 2409 1742 
Q 1991 1309 1228 531 
z
" transform="scale(0.015625)"/>
      <path id="DejaVuSans-7c" d="M 1344 4891 
L 1344 -1509 
L 813 -1509 
L 813 4891 
L 1344 4891 
z
" transform="scale(0.015625)"/>
      <path id="DejaVuSans-64" d="M 2906 2969 
L 2906 4863 
L 3481 4863 
L 3481 0 
L 2906 0 
L 2906 525 
Q 2725 213 2448 61 
Q 2172 -91 1784 -91 
Q 1150 -91 751 415 
Q 353 922 353 1747 
Q 353 2572 751 3078 
Q 1150 3584 1784 3584 
Q 2172 3584 2448 3432 
Q 2725 3281 2906 2969 
z
M 947 1747 
Q 947 1113 1208 752 
Q 1469 391 1925 391 
Q 2381 391 2643 752 
Q 2906 1113 2906 1747 
Q 2906 2381 2643 2742 
Q 2381 3103 1925 3103 
Q 1469 3103 1208 2742 
Q 947 2381 947 1747 
z
" transform="scale(0.015625)"/>
      <path id="DejaVuSans-33" d="M 2597 2516 
Q 3050 2419 3304 2112 
Q 3559 1806 3559 1356 
Q 3559 666 3084 287 
Q 2609 -91 1734 -91 
Q 1441 -91 1130 -33 
Q 819 25 488 141 
L 488 750 
Q 750 597 1062 519 
Q 1375 441 1716 441 
Q 2309 441 2620 675 
Q 2931 909 2931 1356 
Q 2931 1769 2642 2001 
Q 2353 2234 1838 2234 
L 1294 2234 
L 1294 2753 
L 1863 2753 
Q 2328 2753 2575 2939 
Q 2822 3125 2822 3475 
Q 2822 3834 2567 4026 
Q 2313 4219 1838 4219 
Q 1578 4219 1281 4162 
Q 984 4106 628 3988 
L 628 4550 
Q 988 4650 1302 4700 
Q 1616 4750 1894 4750 
Q 2613 4750 3031 4423 
Q 3450 4097 3450 3541 
Q 3450 3153 3228 2886 
Q 3006 2619 2597 2516 
z
" transform="scale(0.015625)"/>
      <path id="DejaVuSans-39" d="M 703 97 
L 703 672 
Q 941 559 1184 500 
Q 1428 441 1663 441 
Q 2288 441 2617 861 
Q 2947 1281 2994 2138 
Q 2813 1869 2534 1725 
Q 2256 1581 1919 1581 
Q 1219 1581 811 2004 
Q 403 2428 403 3163 
Q 403 3881 828 4315 
Q 1253 4750 1959 4750 
Q 2769 4750 3195 4129 
Q 3622 3509 3622 2328 
Q 3622 1225 3098 567 
Q 2575 -91 1691 -91 
Q 1453 -91 1209 -44 
Q 966 3 703 97 
z
M 1959 2075 
Q 2384 2075 2632 2365 
Q 2881 2656 2881 3163 
Q 2881 3666 2632 3958 
Q 2384 4250 1959 4250 
Q 1534 4250 1286 3958 
Q 1038 3666 1038 3163 
Q 1038 2656 1286 2365 
Q 1534 2075 1959 2075 
z
" transform="scale(0.015625)"/>
     </defs>
     <use xlink:href="#DejaVuSans-6e"/>
     <use xlink:href="#DejaVuSans-20" x="63.378906"/>
     <use xlink:href="#DejaVuSans-3d" x="95.166016"/>
     <use xlink:href="#DejaVuSans-20" x="178.955078"/>
     <use xlink:href="#DejaVuSans-32" x="210.742188"/>
     <use xlink:href="#DejaVuSans-20" x="274.365234"/>
     <use xlink:href="#DejaVuSans-7c" x="306.152344"/>
     <use xlink:href="#DejaVuSans-20" x="339.84375"/>
     <use xlink:href="#DejaVuSans-64" x="371.630859"/>
     <use xlink:href="#DejaVuSans-20" x="435.107422"/>
     <use xlink:href="#DejaVuSans-3d" x="466.894531"/>
     <use xlink:href="#DejaVuSans-20" x="550.683594"/>
     <use xlink:href="#DejaVuSans-33" x="582.470703"/>
     <use xlink:href="#DejaVuSans-39" x="646.09375"/>
    </g>
   </g>
  </g>
 </g>
 <defs>
  <clipPath id="p3346a4de81">
   <rect x="45" y="43.2" width="279" height="277.2"/>
  </clipPath>
 </defs>
</svg>
