<?xml version="1.0" encoding="utf-8" standalone="no"?>
<!DOCTYPE svg PUBLIC "-//W3C//DTD SVG 1.1//EN"
  "http://www.w3.org/Graphics/SVG/1.1/DTD/svg11.dtd">
<svg xmlns:xlink="http://www.w3.org/1999/xlink" width="360pt" height="360pt" viewBox="0 0 360 360" xmlns="http://www.w3.org/2000/svg" version="1.1">
 <metadata>
  <rdf:RDF xmlns:dc="http://purl.org/dc/elements/1.1/" xmlns:cc="http://creativecommons.org/ns#" xmlns:rdf="http://www.w3.org/1999/02/22-rdf-syntax-ns#">
   <cc:Work>
    <dc:type rdf:resource="http://purl.org/dc/dcmitype/StillImage"/>
    <dc:date>2026-01-09T18:48:24.872388</dc:date>
    <dc:format>image/svg+xml</dc:format>
    <dc:creator>
     <cc:Agent>
      <dc:title>Matplotlib v3.8.3, https://matplotlib.org/</dc:title>
     </cc:Agent>
    </dc:creator>
   </cc:Work>
  </rdf:RDF>
 </metadata>
 <defs>
  <style type="text/css">*{stroke-linejoin: round; stroke-linecap: butt}</style>
 </defs>
 <g id="figure_1">
  <g id="patch_1">
   <path d="M 0 360 
L 360 360 
L 360 0 
L 0 0 
L 0 360 
z
" style="fill: none"/>
  </g>
  <g id="axes_1">
   <g id="line2d_1">
    <path d="M 184.509716 181.8 
L 184.610625 176.072518 
L 184.913042 170.357314 
L 185.416043 164.666631 
L 186.118084 159.012649 
L 187.017017 153.407448 
L 188.110084 147.862979 
L 189.393933 142.391032 
L 190.864626 137.003202 
L 192.517646 131.710859 
L 194.347914 126.525121 
L 196.3498 121.456818 
L 198.517142 116.516472 
L 200.843259 111.71426 
L 203.320973 107.059992 
L 205.94263 102.563085 
L 208.700115 98.232537 
L 211.584883 94.076902 
L 214.587976 90.104272 
L 217.700053 86.322249 
L 220.911411 82.73793 
L 224.212018 79.357889 
L 227.591536 76.188154 
L 231.039352 73.234201 
L 234.544609 70.500928 
L 238.096232 67.992654 
L 241.682964 65.713101 
L 245.293395 63.665385 
L 248.915993 61.852013 
L 252.539139 60.274871 
L 256.151157 58.935226 
L 259.740347 57.833717 
L 263.29502 56.970361 
L 266.803529 56.344546 
L 270.254299 55.955043 
L 273.635867 55.8 
L 276.936905 55.876957 
L 280.146261 56.182848 
L 283.252981 56.714013 
L 286.246348 57.466208 
L 289.115908 58.434618 
L 291.851499 59.613869 
L 294.443282 60.998048 
L 296.881768 62.580716 
L 299.157844 64.354929 
L 301.2628 66.313256 
L 303.188354 68.447801 
L 304.926673 70.750228 
L 306.470398 73.211781 
L 307.812665 75.823311 
L 308.947123 78.5753 
L 309.867955 81.457891 
L 310.569891 84.460913 
L 311.048226 87.573912 
L 311.298835 90.786178 
L 311.318182 94.086779 
L 311.103332 97.464585 
L 310.651963 100.908309 
L 309.962365 104.406528 
L 309.033458 107.947725 
L 307.864783 111.520313 
L 306.456513 115.112674 
L 304.80945 118.713188 
L 302.925025 122.310265 
L 300.805294 125.89238 
L 298.452933 129.448104 
L 295.871234 132.966136 
L 293.064092 136.435334 
L 290.036002 139.844748 
L 286.792042 143.183649 
L 283.337862 146.441557 
L 279.679669 149.608277 
L 275.824214 152.673919 
L 271.77877 155.628933 
L 267.551113 158.464129 
L 263.149506 161.17071 
L 258.582674 163.74029 
L 253.859781 166.16492 
L 248.990407 168.437111 
L 243.984522 170.549853 
L 238.852458 172.496638 
L 233.604886 174.271472 
L 228.252783 175.8689 
L 222.807405 177.284012 
L 217.280257 178.512464 
L 211.683063 179.550488 
L 206.027731 180.3949 
L 200.326328 181.043113 
L 194.59104 181.49314 
L 188.834146 181.743602 
L 183.067982 181.793733 
L 177.304909 181.643379 
L 171.557278 181.293 
L 165.837403 180.74367 
L 160.157518 179.997071 
L 154.529756 179.055492 
L 148.966107 177.921819 
L 143.478392 176.59953 
L 138.078228 175.092682 
L 132.777001 173.405903 
L 127.585829 171.544377 
L 122.515541 169.513832 
L 117.576642 167.32052 
L 112.779286 164.971203 
L 108.133251 162.473133 
L 103.647913 159.834031 
L 99.332219 157.062067 
L 95.194666 154.165837 
L 91.243275 151.154338 
L 87.485574 148.036941 
L 83.928578 144.823371 
L 80.578766 141.523674 
L 77.44207 138.148191 
L 74.523856 134.707529 
L 71.82891 131.212532 
L 69.361431 127.674251 
L 67.125012 124.10391 
L 65.122638 120.512878 
L 63.356676 116.912637 
L 61.82887 113.314749 
L 60.540337 109.730821 
L 59.491563 106.172477 
L 58.682407 102.651324 
L 58.112098 99.178918 
L 57.779241 95.766733 
L 57.681818 92.426128 
L 57.817201 89.168315 
L 58.182152 86.004329 
L 58.77284 82.944995 
L 59.584847 80.000899 
L 60.613185 77.182357 
L 61.852309 74.499386 
L 63.296131 71.961677 
L 64.938043 69.578567 
L 66.770929 67.359012 
L 68.787192 65.311561 
L 70.978771 63.444333 
L 73.337166 61.764993 
L 75.853464 60.280733 
L 78.51836 58.998245 
L 81.322186 57.923709 
L 84.254938 57.06277 
L 87.306306 56.420523 
L 90.465699 56.001501 
L 93.722278 55.809656 
L 97.064987 55.848353 
L 100.482581 56.120357 
L 103.963661 56.627823 
L 107.496704 57.372293 
L 111.070095 58.354689 
L 114.672162 59.575307 
L 118.291205 61.033819 
L 121.915534 62.729273 
L 125.533497 64.660092 
L 129.133513 66.824078 
L 132.704108 69.21842 
L 136.233944 71.839696 
L 139.711852 74.683885 
L 143.126861 77.746378 
L 146.468234 81.021985 
L 149.72549 84.504953 
L 152.888442 88.188979 
L 155.947218 92.067225 
L 158.892293 96.132339 
L 161.714514 100.376471 
L 164.405127 104.791296 
L 166.955798 109.368035 
L 169.358642 114.097477 
L 171.606237 118.970006 
L 173.691654 123.975625 
L 175.608469 129.10398 
L 177.350782 134.344393 
L 178.913239 139.685886 
L 180.291039 145.117211 
L 181.479953 150.626881 
L 182.476335 156.2032 
L 183.277128 161.834295 
L 183.87988 167.508144 
L 184.282743 173.212615 
L 184.484484 178.935491 
L 184.484484 184.664509 
L 184.282743 190.387385 
L 183.87988 196.091856 
L 183.277128 201.765705 
L 182.476335 207.3968 
L 181.479953 212.973119 
L 180.291039 218.482789 
L 178.913239 223.914114 
L 177.350782 229.255607 
L 175.608469 234.49602 
L 173.691654 239.624375 
L 171.606237 244.629994 
L 169.358642 249.502523 
L 166.955798 254.231965 
L 164.405127 258.808704 
L 161.714514 263.223529 
L 158.892293 267.467661 
L 155.947218 271.532775 
L 152.888442 275.411021 
L 149.72549 279.095047 
L 146.468234 282.578015 
L 143.126861 285.853622 
L 139.711852 288.916115 
L 136.233944 291.760304 
L 132.704108 294.38158 
L 129.133513 296.775922 
L 125.533497 298.939908 
L 121.915534 300.870727 
L 118.291205 302.566181 
L 114.672162 304.024693 
L 111.070095 305.245311 
L 107.496704 306.227707 
L 103.963661 306.972177 
L 100.482581 307.479643 
L 97.064987 307.751647 
L 93.722278 307.790344 
L 90.465699 307.598499 
L 87.306306 307.179477 
L 84.254938 306.53723 
L 81.322186 305.676291 
L 78.51836 304.601755 
L 75.853464 303.319267 
L 73.337166 301.835007 
L 70.978771 300.155667 
L 68.787192 298.288439 
L 66.770929 296.240988 
L 64.938043 294.021433 
L 63.296131 291.638323 
L 61.852309 289.100614 
L 60.613185 286.417643 
L 59.584847 283.599101 
L 58.77284 280.655005 
L 58.182152 277.595671 
L 57.817201 274.431685 
L 57.681818 271.173872 
L 57.779241 267.833267 
L 58.112098 264.421082 
L 58.682407 260.948676 
L 59.491563 257.427523 
L 60.540337 253.869179 
L 61.82887 250.285251 
L 63.356676 246.687363 
L 65.122638 243.087122 
L 67.125012 239.49609 
L 69.361431 235.925749 
L 71.82891 232.387468 
L 74.523856 228.892471 
L 77.44207 225.451809 
L 80.578766 222.076326 
L 83.928578 218.776629 
L 87.485574 215.563059 
L 91.243275 212.445662 
L 95.194666 209.434163 
L 99.332219 206.537933 
L 103.647913 203.765969 
L 108.133251 201.126867 
L 112.779286 198.628797 
L 117.576642 196.27948 
L 122.515541 194.086168 
L 127.585829 192.055623 
L 132.777001 190.194097 
L 138.078228 188.507318 
L 143.478392 187.00047 
L 148.966107 185.678181 
L 154.529756 184.544508 
L 160.157518 183.602929 
L 165.837403 182.85633 
L 171.557278 182.307 
L 177.304909 181.956621 
L 183.067982 181.806267 
L 188.834146 181.856398 
L 194.59104 182.10686 
L 200.326328 182.556887 
L 206.027731 183.2051 
L 211.683063 184.049512 
L 217.280257 185.087536 
L 222.807405 186.315988 
L 228.252783 187.7311 
L 233.604886 189.328528 
L 238.852458 191.103362 
L 243.984522 193.050147 
L 248.990407 195.162889 
L 253.859781 197.43508 
L 258.582674 199.85971 
L 263.149506 202.42929 
L 267.551113 205.135871 
L 271.77877 207.971067 
L 275.824214 210.926081 
L 279.679669 213.991723 
L 283.337862 217.158443 
L 286.792042 220.416351 
L 290.036002 223.755252 
L 293.064092 227.164666 
L 295.871234 230.633864 
L 298.452933 234.151896 
L 300.805294 237.70762 
L 302.925025 241.289735 
L 304.80945 244.886812 
L 306.456513 248.487326 
L 307.864783 252.079687 
L 309.033458 255.652275 
L 309.962365 259.193472 
L 310.651963 262.691691 
L 311.103332 266.135415 
L 311.318182 269.513221 
L 311.298835 272.813822 
L 311.048226 276.026088 
L 310.569891 279.139087 
L 309.867955 282.142109 
L 308.947123 285.0247 
L 307.812665 287.776689 
L 306.470398 290.388219 
L 304.926673 292.849772 
L 303.188354 295.152199 
L 301.2628 297.286744 
L 299.157844 299.245071 
L 296.881768 301.019284 
L 294.443282 302.601952 
L 291.851499 303.986131 
L 289.115908 305.165382 
L 286.246348 306.133792 
L 283.252981 306.885987 
L 280.146261 307.417152 
L 276.936905 307.723043 
L 273.635867 307.8 
L 270.254299 307.644957 
L 266.803529 307.255454 
L 263.29502 306.629639 
L 259.740347 305.766283 
L 256.151157 304.664774 
L 252.539139 303.325129 
L 248.915993 301.747987 
L 245.293395 299.934615 
L 241.682964 297.886899 
L 238.096232 295.607346 
L 234.544609 293.099072 
L 231.039352 290.365799 
L 227.591536 287.411846 
L 224.212018 284.242111 
L 220.911411 280.86207 
L 217.700053 277.277751 
L 214.587976 273.495728 
L 211.584883 269.523098 
L 208.700115 265.367463 
L 205.94263 261.036915 
L 203.320973 256.540008 
L 200.843259 251.88574 
L 198.517142 247.083528 
L 196.3498 242.143182 
L 194.347914 237.074879 
L 192.517646 231.889141 
L 190.864626 226.596798 
L 189.393933 221.208968 
L 188.110084 215.737021 
L 187.017017 210.192552 
L 186.118084 204.587351 
L 185.416043 198.933369 
L 184.913042 193.242686 
L 184.610625 187.527482 
L 184.509716 181.8 
L 184.509716 181.8 
" clip-path="url(#p4f5c73def9)" style="fill: none; stroke: #0000ff; stroke-width: 1.5; stroke-linecap: square"/>
   </g>
  </g>
 </g>
 <defs>
  <clipPath id="p4f5c73def9">
   <rect x="45" y="43.2" width="279" height="277.2"/>
  </clipPath>
 </defs>
</svg>
