<?xml version="1.0" encoding="utf-8" standalone="no"?>
<!DOCTYPE svg PUBLIC "-//W3C//DTD SVG 1.1//EN"
  "http://www.w3.org/Graphics/SVG/1.1/DTD/svg11.dtd">
<svg xmlns:xlink="http://www.w3.org/1999/xlink" width="360pt" height="360pt" viewBox="0 0 360 360" xmlns="http://www.w3.org/2000/svg" version="1.1">
 <metadata>
  <rdf:RDF xmlns:dc="http://purl.org/dc/elements/1.1/" xmlns:cc="http://creativecommons.org/ns#" xmlns:rdf="http://www.w3.org/1999/02/22-rdf-syntax-ns#">
   <cc:Work>
    <dc:type rdf:resource="http://purl.org/dc/dcmitype/StillImage"/>
    <dc:date>2026-01-09T18:49:55.613929</dc:date>
    <dc:format>image/svg+xml</dc:format>
    <dc:creator>
     <cc:Agent>
      <dc:title>Matplotlib v3.8.3, https://matplotlib.org/</dc:title>
     </cc:Agent>
    </dc:creator>
   </cc:Work>
  </rdf:RDF>
 </metadata>
 <defs>
  <style type="text/css">*{stroke-linejoin: round; stroke-linecap: butt}</style>
 </defs>
 <g id="figure_1">
  <g id="patch_1">
   <path d="M 0 360 
L 360 360 
L 360 0 
L 0 0 
L 0 360 
z
" style="fill: none"/>
  </g>
  <g id="axes_1">
   <g id="line2d_1">
    <path d="M 220.009065 181.8 
L 220.086101 176.398998 
L 220.316964 171.008249 
L 220.700925 165.637982 
L 221.236767 160.298376 
L 221.922794 154.999543 
L 222.756831 149.751498 
L 223.736233 144.564139 
L 224.857889 139.447223 
L 226.118234 134.410343 
L 227.513254 129.462909 
L 229.038502 124.61412 
L 230.689104 119.872952 
L 232.459777 115.248127 
L 234.34484 110.748101 
L 236.33823 106.381041 
L 238.43352 102.154807 
L 240.623932 98.076934 
L 242.902359 94.154617 
L 245.261381 90.394689 
L 247.693289 86.803615 
L 250.190101 83.387466 
L 252.743585 80.151918 
L 255.345283 77.102228 
L 257.986529 74.243231 
L 260.65848 71.579325 
L 263.35213 69.114463 
L 266.058343 66.852145 
L 268.767871 64.795411 
L 271.471384 62.946835 
L 274.159492 61.308519 
L 276.822771 59.882089 
L 279.451789 58.668697 
L 282.037131 57.669013 
L 284.569427 56.883229 
L 287.039373 56.31106 
L 289.43776 55.951744 
L 291.755497 55.804048 
L 293.983639 55.866269 
L 296.113407 56.136244 
L 298.136218 56.611352 
L 300.043701 57.288526 
L 301.82773 58.16426 
L 303.480437 59.234618 
L 304.994242 60.495247 
L 306.361866 61.94139 
L 307.576362 63.567894 
L 308.631126 65.36923 
L 309.519918 67.339505 
L 310.236885 69.472475 
L 310.776571 71.76157 
L 311.133938 74.1999 
L 311.304378 76.780283 
L 311.283729 79.49526 
L 311.06829 82.337112 
L 310.654826 85.297884 
L 310.040585 88.369403 
L 309.223305 91.543302 
L 308.201221 94.811038 
L 306.973075 98.163917 
L 305.538118 101.593114 
L 303.896116 105.089696 
L 302.047355 108.644647 
L 299.992638 112.248889 
L 297.733291 115.893302 
L 295.271158 119.568756 
L 292.608601 123.266122 
L 289.748492 126.976307 
L 286.694218 130.690268 
L 283.449663 134.399038 
L 280.019209 138.09375 
L 274.535746 143.590361 
L 268.663505 149.00679 
L 262.423237 154.315017 
L 255.837923 159.488057 
L 248.932652 164.500111 
L 241.734502 169.326705 
L 234.272401 173.944828 
L 226.576979 178.333051 
L 218.68041 182.471647 
L 210.616249 186.342693 
L 202.419252 189.930165 
L 194.125199 193.220019 
L 185.770701 196.200267 
L 177.39301 198.861029 
L 169.029822 201.194583 
L 160.719073 203.195398 
L 152.498741 204.860153 
L 144.40664 206.187746 
L 136.480219 207.179288 
L 128.756361 207.838085 
L 121.271182 208.169604 
L 114.059844 208.18143 
L 107.156355 207.883212 
L 100.593395 207.286589 
L 94.402133 206.405114 
L 88.612061 205.254162 
L 84.988633 204.345523 
L 81.563553 203.330146 
L 78.344119 202.213797 
L 75.3372 201.00253 
L 72.549219 199.702663 
L 69.98614 198.320767 
L 67.653449 196.863643 
L 65.556146 195.338301 
L 63.698728 193.751947 
L 62.085181 192.111955 
L 60.718971 190.425851 
L 59.603033 188.701289 
L 58.739767 186.946034 
L 58.131027 185.167933 
L 57.778125 183.3749 
L 57.681818 181.57489 
L 57.842315 179.775876 
L 58.259269 177.985832 
L 58.931785 176.212703 
L 59.858414 174.464388 
L 61.037166 172.748717 
L 62.465506 171.073428 
L 64.140366 169.446145 
L 66.05815 167.874359 
L 68.214741 166.365404 
L 70.605517 164.926437 
L 73.225355 163.564419 
L 76.068647 162.286096 
L 79.129315 161.097976 
L 82.400822 160.006313 
L 85.876189 159.017092 
L 89.548015 158.136004 
L 93.40849 157.368438 
L 97.449418 156.719461 
L 103.830324 155.978602 
L 110.567543 155.529605 
L 117.629128 155.385077 
L 124.981714 155.555671 
L 132.590692 156.050011 
L 140.420399 156.874632 
L 148.434311 158.033923 
L 156.595236 159.530096 
L 164.865518 161.363158 
L 173.207236 163.530895 
L 181.582407 166.028882 
L 189.95319 168.850488 
L 198.282087 171.986908 
L 206.532141 175.4272 
L 214.667132 179.158339 
L 222.651771 183.165284 
L 230.451878 187.431049 
L 238.034569 191.936797 
L 245.368421 196.661936 
L 252.423635 201.584231 
L 259.172191 206.679923 
L 265.587989 211.923859 
L 271.646979 217.289628 
L 277.327282 222.749709 
L 282.609295 228.275622 
L 287.475786 233.838084 
L 291.91197 239.407179 
L 294.624205 243.108601 
L 297.136686 246.790388 
L 299.446922 250.443418 
L 301.552941 254.058558 
L 303.453287 257.626684 
L 305.147025 261.138707 
L 306.633742 264.585591 
L 307.913541 267.958382 
L 308.987042 271.248224 
L 309.855378 274.44639 
L 310.520185 277.544296 
L 310.983605 280.533528 
L 311.248266 283.405865 
L 311.317283 286.153293 
L 311.194242 288.768035 
L 310.883193 291.242563 
L 310.388631 293.569624 
L 309.715489 295.742254 
L 308.869119 297.753801 
L 307.855278 299.597938 
L 306.68011 301.268683 
L 305.350129 302.760414 
L 303.8722 304.067884 
L 302.25352 305.186234 
L 300.501594 306.111009 
L 298.624222 306.838169 
L 296.629468 307.364098 
L 294.525642 307.68562 
L 292.321278 307.8 
L 290.025107 307.704961 
L 287.646036 307.398684 
L 285.19312 306.879818 
L 282.675543 306.147484 
L 280.102586 305.201275 
L 277.483605 304.041265 
L 274.828008 302.668006 
L 272.145223 301.082527 
L 269.444679 299.286338 
L 266.735777 297.28142 
L 264.027865 295.070232 
L 261.330213 292.655696 
L 258.651988 290.041197 
L 256.002229 287.230578 
L 253.389825 284.228125 
L 250.823486 281.038564 
L 248.311725 277.66705 
L 245.862833 274.119153 
L 243.484855 270.400848 
L 241.185572 266.518502 
L 238.972477 262.478857 
L 236.852759 258.28902 
L 234.833277 253.956442 
L 232.920549 249.488904 
L 231.120731 244.894497 
L 229.4396 240.181606 
L 227.88254 235.358891 
L 226.454529 230.435264 
L 225.160122 225.419871 
L 224.003442 220.322072 
L 222.988167 215.151414 
L 222.117523 209.917618 
L 221.394271 204.630547 
L 220.820705 199.300191 
L 220.398641 193.936636 
L 220.129416 188.55005 
L 220.013881 183.150651 
L 220.052403 177.748688 
L 220.244859 172.354416 
L 220.59064 166.978071 
L 221.088653 161.629849 
L 221.737319 156.31988 
L 222.534583 151.058205 
L 223.477917 145.854754 
L 224.564326 140.71932 
L 225.790357 135.661542 
L 227.152109 130.690875 
L 228.64524 125.816574 
L 230.264983 121.047673 
L 232.006156 116.392959 
L 233.863175 111.860956 
L 235.830072 107.459905 
L 237.900509 103.197745 
L 240.067794 99.082094 
L 242.324901 95.120233 
L 244.664487 91.319087 
L 247.078911 87.685214 
L 249.560259 84.224787 
L 252.10036 80.943579 
L 254.690809 77.846955 
L 257.322991 74.939855 
L 259.988104 72.226788 
L 262.677181 69.711819 
L 265.381116 67.398562 
L 268.090687 65.290173 
L 270.796582 63.389341 
L 273.489424 61.698289 
L 276.159795 60.218761 
L 278.798262 58.952028 
L 281.395404 57.89888 
L 283.941837 57.059629 
L 286.428237 56.434109 
L 288.845371 56.021677 
L 291.184115 55.821218 
L 293.435486 55.831144 
L 295.59066 56.049409 
L 297.641004 56.473504 
L 299.578091 57.100473 
L 301.393732 57.926919 
L 303.079992 58.949013 
L 304.629216 60.162505 
L 306.03405 61.562738 
L 307.287461 63.144655 
L 308.382757 64.902822 
L 309.313607 66.831434 
L 310.074058 68.924334 
L 310.658553 71.175031 
L 311.061948 73.576714 
L 311.279527 76.122274 
L 311.307016 78.804316 
L 311.140596 81.615185 
L 310.776916 84.546985 
L 310.2131 87.591595 
L 309.446765 90.740693 
L 308.47602 93.98578 
L 307.29948 97.318196 
L 305.916267 100.729147 
L 304.32602 104.209725 
L 302.528893 107.750933 
L 300.525562 111.343705 
L 298.31722 114.978932 
L 295.905583 118.647482 
L 293.292881 122.340224 
L 290.481863 126.048055 
L 287.475786 129.761916 
L 284.278409 133.472819 
L 280.893992 137.171871 
L 275.477182 142.679057 
L 269.668358 148.110821 
L 263.487891 153.438986 
L 256.958397 158.636382 
L 250.104624 163.677004 
L 242.953327 168.536148 
L 235.533135 173.190548 
L 227.874404 177.618505 
L 220.009065 181.8 
L 211.970453 185.716803 
L 203.793136 189.352566 
L 195.512736 192.692913 
L 187.16574 195.725506 
L 178.789307 198.44011 
L 170.421071 200.828642 
L 162.098944 202.885204 
L 153.86091 204.606105 
L 145.744824 205.989875 
L 137.78821 207.037255 
L 130.02806 207.751188 
L 122.500632 208.136782 
L 115.241258 208.201276 
L 108.284154 207.953976 
L 101.662232 207.406197 
L 95.406924 206.571178 
L 89.548015 205.463996 
L 85.876189 204.582908 
L 82.400822 203.593687 
L 79.129315 202.502024 
L 76.068647 201.313904 
L 73.225355 200.035581 
L 70.605517 198.673563 
L 68.214741 197.234596 
L 66.05815 195.725641 
L 64.140366 194.153855 
L 62.465506 192.526572 
L 61.037166 190.851283 
L 59.858414 189.135612 
L 58.931785 187.387297 
L 58.259269 185.614168 
L 57.842315 183.824124 
L 57.681818 182.02511 
L 57.778125 180.2251 
L 58.131027 178.432067 
L 58.739767 176.653966 
L 59.603033 174.898711 
L 60.718971 173.174149 
L 62.085181 171.488045 
L 63.698728 169.848053 
L 65.556146 168.261699 
L 67.653449 166.736357 
L 69.98614 165.279233 
L 72.549219 163.897337 
L 75.3372 162.59747 
L 78.344119 161.386203 
L 81.563553 160.269854 
L 84.988633 159.254477 
L 88.612061 158.345838 
L 92.426127 157.549404 
L 96.422731 156.870323 
L 102.741255 156.082179 
L 109.421266 155.583611 
L 116.431072 155.387544 
L 123.73753 155.504963 
L 131.306226 155.944835 
L 139.10166 156.714046 
L 147.087438 157.817346 
L 155.226466 159.257312 
L 163.481151 161.034319 
L 171.813601 163.146525 
L 180.185831 165.589871 
L 188.559961 168.358094 
L 196.898422 171.442747 
L 205.164154 174.833243 
L 213.320801 178.516899 
L 221.332904 182.479004 
L 229.166088 186.702892 
L 236.787239 191.170026 
L 244.164678 195.860101 
L 251.268328 200.751147 
L 258.069859 205.81965 
L 264.542844 211.040681 
L 270.662882 216.388028 
L 276.407724 221.834344 
L 281.75738 227.351299 
L 286.694218 232.909732 
L 291.203041 238.479821 
L 293.964765 242.184731 
L 296.527438 245.87228 
L 298.88844 249.533355 
L 301.04567 253.158824 
L 302.997542 256.739558 
L 304.742992 260.266456 
L 306.281474 263.730468 
L 307.612965 267.122617 
L 308.737954 270.43402 
L 309.657447 273.655915 
L 310.372956 276.779682 
L 310.886494 279.796861 
L 311.200572 282.699182 
L 311.318182 285.478576 
L 311.242794 288.127205 
L 310.978342 290.637478 
L 310.529213 293.00207 
L 309.900231 295.213944 
L 309.096644 297.266368 
L 308.124109 299.152932 
L 306.988676 300.867566 
L 305.696769 302.404558 
L 304.255165 303.758563 
L 302.67098 304.924627 
L 300.951646 305.898191 
L 299.104889 306.67511 
L 297.13871 307.251663 
L 295.061361 307.62456 
L 292.88132 307.790957 
L 290.607272 307.748461 
L 288.248082 307.495139 
L 285.812772 307.029521 
L 283.310494 306.35061 
L 280.750507 305.457882 
L 278.142151 304.35129 
L 275.494825 303.031265 
L 272.817952 301.498718 
L 270.120965 299.755039 
L 267.413274 297.802092 
L 264.704242 295.642215 
L 262.003161 293.278216 
L 259.319226 290.713366 
L 256.661511 287.951392 
L 254.038944 284.996472 
L 251.460283 281.853221 
L 248.934091 278.526689 
L 246.468717 275.022344 
L 244.072271 271.346059 
L 241.7526 267.504105 
L 239.517272 263.503133 
L 237.373553 259.350158 
L 235.328387 255.052549 
L 233.38838 250.618004 
L 231.559777 246.054539 
L 229.848454 241.370468 
L 228.259894 236.574383 
L 226.799177 231.675135 
L 225.470966 226.681814 
L 224.279491 221.603728 
L 223.228545 216.45038 
L 222.321466 211.231449 
L 221.561133 205.956765 
L 220.949956 200.636288 
L 220.489872 195.280082 
L 220.182338 189.898298 
L 220.028328 184.501142 
L 220.009065 181.8 
L 220.009065 181.8 
" clip-path="url(#p1905b0b1b4)" style="fill: none; stroke: #0000ff; stroke-width: 1.5; stroke-linecap: square"/>
   </g>
  </g>
 </g>
 <defs>
  <clipPath id="p1905b0b1b4">
   <rect x="45" y="43.2" width="279" height="277.2"/>
  </clipPath>
 </defs>
</svg>
