<?xml version="1.0" encoding="utf-8" standalone="no"?>
<!DOCTYPE svg PUBLIC "-//W3C//DTD SVG 1.1//EN"
  "http://www.w3.org/Graphics/SVG/1.1/DTD/svg11.dtd">
<svg xmlns:xlink="http://www.w3.org/1999/xlink" width="360pt" height="360pt" viewBox="0 0 360 360" xmlns="http://www.w3.org/2000/svg" version="1.1">
 <metadata>
  <rdf:RDF xmlns:dc="http://purl.org/dc/elements/1.1/" xmlns:cc="http://creativecommons.org/ns#" xmlns:rdf="http://www.w3.org/1999/02/22-rdf-syntax-ns#">
   <cc:Work>
    <dc:type rdf:resource="http://purl.org/dc/dcmitype/StillImage"/>
    <dc:date>2026-01-09T18:04:27.913307</dc:date>
    <dc:format>image/svg+xml</dc:format>
    <dc:creator>
     <cc:Agent>
      <dc:title>Matplotlib v3.8.3, https://matplotlib.org/</dc:title>
     </cc:Agent>
    </dc:creator>
   </cc:Work>
  </rdf:RDF>
 </metadata>
 <defs>
  <style type="text/css">*{stroke-linejoin: round; stroke-linecap: butt}</style>
 </defs>
 <g id="figure_1">
  <g id="patch_1">
   <path d="M 0 360 
L 360 360 
L 360 0 
L 0 0 
L 0 360 
z
" style="fill: none"/>
  </g>
  <g id="axes_1">
   <g id="line2d_1">
    <path d="M 184.5 181.8 
L 237.837027 56.95651 
L 177.646159 188.375976 
L 57.681818 230.166868 
L 203.497922 182.459142 
L 306.410919 238.281234 
L 165.497741 160.832009 
L 141.35192 57.297337 
L 181.873738 219.114989 
L 125.524922 296.798366 
L 220.286653 151.965165 
L 305.609333 145.012044 
L 129.248626 176.030312 
L 77.127051 122.666188 
L 223.979051 232.004875 
L 215.115566 295.321695 
L 194.573501 110.585744 
L 242.82154 85.362872 
L 119.548114 228.685854 
L 79.625111 205.856068 
L 270.963815 196.947543 
L 269.629542 236.727101 
L 131.442307 103.646228 
L 166.395541 89.261531 
L 163.395853 280.446643 
L 134.141332 253.255634 
L 275.778409 125.130901 
L 263.796505 169.321695 
L 74.626295 154.582148 
L 126.693888 138.521003 
L 243.644732 283.580768 
L 192.314824 245.03601 
L 218.338702 64.551773 
L 219.462344 138.903649 
L 72.680841 240.871719 
L 137.961611 185.845313 
L 308.045829 221.683489 
L 212.914065 206.340615 
L 126.401955 63.449863 
L 183.013741 153.623453 
L 138.493565 307.386146 
L 171.535551 195.612975 
L 308.596618 126.905086 
L 194.026509 181.634787 
L 57.934116 130.993973 
L 184.5 181.8 
L 235.635936 307.549329 
L 184.666286 172.334952 
L 239.751374 58.504005 
L 170.59733 194.680808 
L 58.098359 227.509619 
L 212.859512 183.27667 
L 303.618644 239.523219 
L 159.80003 153.569251 
L 144.357527 59.051241 
L 180.428419 228.038141 
L 125.044698 292.897745 
L 227.674899 147.06322 
L 302.509579 148.179612 
L 120.853367 174.035594 
L 82.058318 123.036846 
L 228.06003 239.233169 
L 211.894591 290.964842 
L 197.059333 103.015085 
L 241.537081 91.110484 
L 112.580369 231.833773 
L 85.212794 202.767991 
L 277.639368 199.787656 
L 263.161264 234.515385 
L 129.216229 97.219681 
L 169.254097 95.894017 
L 160.287724 285.998276 
L 137.309693 246.332842 
L 281.563343 123.854728 
L 256.176686 171.791489 
L 70.241151 151.381953 
L 133.969119 142.575652 
L 244.017798 288.48022 
L 190.307153 236.694914 
L 221.526839 61.472018 
L 214.528568 146.244228 
L 68.754892 240.394594 
L 146.942705 184.409318 
L 309.811122 224.669705 
L 205.604147 200.679664 
L 127.652005 60.675603 
L 183.836578 162.924645 
L 135.819061 307.8 
L 177.881322 188.609623 
L 310.154162 128.807083 
L 184.5 181.8 
L 58.845838 128.807083 
L 191.118678 188.609623 
L 233.180939 307.8 
L 185.163422 162.924645 
L 241.347995 60.675603 
L 163.395853 200.679664 
L 59.188878 224.669705 
L 222.057295 184.409318 
L 300.245108 240.394594 
L 154.471432 146.244228 
L 147.473161 61.472018 
L 178.692847 236.694914 
L 124.982202 288.48022 
L 235.030881 142.575652 
L 298.758849 151.381953 
L 112.823314 171.791489 
L 87.436657 123.854728 
L 231.690307 246.332842 
L 208.712276 285.998276 
L 199.745903 95.894017 
L 239.783771 97.219681 
L 105.838736 234.515385 
L 91.360632 199.787656 
L 283.787206 202.767991 
L 256.419631 231.833773 
L 127.462919 91.110484 
L 171.940667 103.015085 
L 157.105409 290.964842 
L 140.93997 239.233169 
L 286.941682 123.036846 
L 248.146633 174.035594 
L 66.490421 148.179612 
L 141.325101 147.06322 
L 243.955302 292.897745 
L 188.571581 228.038141 
L 224.642473 59.051241 
L 209.19997 153.569251 
L 65.381356 239.523219 
L 156.140488 183.27667 
L 310.901641 227.509619 
L 198.40267 194.680808 
L 129.248626 58.504005 
L 184.333714 172.334952 
L 133.364064 307.549329 
L 184.5 181.8 
L 311.065884 130.993973 
L 174.973491 181.634787 
L 60.403382 126.905086 
L 197.464449 195.612975 
L 230.506435 307.386146 
L 185.986259 153.623453 
L 242.598045 63.449863 
L 156.085935 206.340615 
L 60.954171 221.683489 
L 231.038389 185.845313 
L 296.319159 240.871719 
L 149.537656 138.903649 
L 150.661298 64.551773 
L 176.685176 245.03601 
L 125.355268 283.580768 
L 242.306112 138.521003 
L 294.373705 154.582148 
L 105.203495 169.321695 
L 93.221591 125.130901 
L 234.858668 253.255634 
L 205.604147 280.446643 
L 202.604459 89.261531 
L 237.557693 103.646228 
L 99.370458 236.727101 
L 98.036185 196.947543 
L 289.374889 205.856068 
L 249.451886 228.685854 
L 126.17846 85.362872 
L 174.426499 110.585744 
L 153.884434 295.321695 
L 145.020949 232.004875 
L 291.872949 122.666188 
L 239.751374 176.030312 
L 63.390667 145.012044 
L 148.713347 151.965165 
L 243.475078 296.798366 
L 187.126262 219.114989 
L 227.64808 57.297337 
L 203.502259 160.832009 
L 62.589081 238.281234 
L 165.502078 182.459142 
L 311.318182 230.166868 
L 191.353841 188.375976 
L 131.162973 56.95651 
L 184.5 181.8 
L 131.162973 306.64349 
L 191.353841 175.224024 
L 311.318182 133.433132 
L 165.502078 181.140858 
L 62.589081 125.318766 
L 203.502259 202.767991 
L 227.64808 306.302663 
L 187.126262 144.485011 
L 243.475078 66.801634 
L 148.713347 211.634835 
L 63.390667 218.587956 
L 239.751374 187.569688 
L 291.872949 240.933812 
L 145.020949 131.595125 
L 153.884434 68.278305 
L 174.426499 253.014256 
L 126.17846 278.237128 
L 249.451886 134.914146 
L 289.374889 157.743932 
L 98.036185 166.652457 
L 99.370458 126.872899 
L 237.557693 259.953772 
L 202.604459 274.338469 
L 205.604147 83.153357 
L 234.858668 110.344366 
L 93.221591 238.469099 
L 105.203495 194.278305 
L 294.373705 209.017852 
L 242.306112 225.078997 
L 125.355268 80.019232 
L 176.685176 118.56399 
L 150.661298 299.048227 
L 149.537656 224.696351 
L 296.319159 122.728281 
L 231.038389 177.754687 
L 60.954171 141.916511 
L 156.085935 157.259385 
L 242.598045 300.150137 
L 185.986259 209.976547 
L 230.506435 56.213854 
L 197.464449 167.987025 
L 60.403382 236.694914 
L 174.973491 181.965213 
L 311.065884 232.606027 
L 184.5 181.8 
L 133.364064 56.050671 
L 184.333714 191.265048 
L 129.248626 305.095995 
L 198.40267 168.919192 
L 310.901641 136.090381 
L 156.140488 180.32333 
L 65.381356 124.076781 
L 209.19997 210.030749 
L 224.642473 304.548759 
L 188.571581 135.561859 
L 243.955302 70.702255 
L 141.325101 216.53678 
L 66.490421 215.420388 
L 248.146633 189.564406 
L 286.941682 240.563154 
L 140.93997 124.366831 
L 157.105409 72.635158 
L 171.940667 260.584915 
L 127.462919 272.489516 
L 256.419631 131.766227 
L 283.787206 160.832009 
L 91.360632 163.812344 
L 105.838736 129.084615 
L 239.783771 266.380319 
L 199.745903 267.705983 
L 208.712276 77.601724 
L 231.690307 117.267158 
L 87.436657 239.745272 
L 112.823314 191.808511 
L 298.758849 212.218047 
L 235.030881 221.024348 
L 124.982202 75.11978 
L 178.692847 126.905086 
L 147.473161 302.127982 
L 154.471432 217.355772 
L 300.245108 123.205406 
L 222.057295 179.190682 
L 59.188878 138.930295 
L 163.395853 162.920336 
L 241.347995 302.924397 
L 185.163422 200.675355 
L 233.180939 55.8 
L 191.118678 174.990377 
L 58.845838 234.792917 
L 184.5 181.8 
L 310.154162 234.792917 
L 177.881322 174.990377 
L 135.819061 55.8 
L 183.836578 200.675355 
L 127.652005 302.924397 
L 205.604147 162.920336 
L 309.811122 138.930295 
L 146.942705 179.190682 
L 68.754892 123.205406 
L 214.528568 217.355772 
L 221.526839 302.127982 
L 190.307153 126.905086 
L 244.017798 75.11978 
L 133.969119 221.024348 
L 70.241151 212.218047 
L 256.176686 191.808511 
L 281.563343 239.745272 
L 137.309693 117.267158 
L 160.287724 77.601724 
L 169.254097 267.705983 
L 129.216229 266.380319 
L 263.161264 129.084615 
L 277.639368 163.812344 
L 85.212794 160.832009 
L 112.580369 131.766227 
L 241.537081 272.489516 
L 197.059333 260.584915 
L 211.894591 72.635158 
L 228.06003 124.366831 
L 82.058318 240.563154 
L 120.853367 189.564406 
L 302.509579 215.420388 
L 227.674899 216.53678 
L 125.044698 70.702255 
L 180.428419 135.561859 
L 144.357527 304.548759 
L 159.80003 210.030749 
L 303.618644 124.076781 
L 212.859512 180.32333 
L 58.098359 136.090381 
L 170.59733 168.919192 
L 239.751374 305.095995 
L 184.666286 191.265048 
L 235.635936 56.050671 
L 184.5 181.8 
L 57.934116 232.606027 
L 194.026509 181.965213 
L 308.596618 236.694914 
L 171.535551 167.987025 
L 138.493565 56.213854 
L 183.013741 209.976547 
L 126.401955 300.150137 
L 212.914065 157.259385 
L 308.045829 141.916511 
L 137.961611 177.754687 
L 72.680841 122.728281 
L 219.462344 224.696351 
L 218.338702 299.048227 
L 192.314824 118.56399 
L 243.644732 80.019232 
L 126.693888 225.078997 
L 74.626295 209.017852 
L 263.796505 194.278305 
L 275.778409 238.469099 
L 134.141332 110.344366 
L 163.395853 83.153357 
L 166.395541 274.338469 
L 131.442307 259.953772 
L 269.629542 126.872899 
L 270.963815 166.652457 
L 79.625111 157.743932 
L 119.548114 134.914146 
L 242.82154 278.237128 
L 194.573501 253.014256 
L 215.115566 68.278305 
L 223.979051 131.595125 
L 77.127051 240.933812 
L 129.248626 187.569688 
L 305.609333 218.587956 
L 220.286653 211.634835 
L 125.524922 66.801634 
L 181.873738 144.485011 
L 141.35192 306.302663 
L 165.497741 202.767991 
L 306.410919 125.318766 
L 203.497922 181.140858 
L 57.681818 133.433132 
L 177.646159 175.224024 
L 237.837027 306.64349 
L 237.837027 306.64349 
" clip-path="url(#p7b41ff722d)" style="fill: none; stroke: #0000ff; stroke-width: 1.5; stroke-linecap: square"/>
   </g>
   <g id="text_1">
    <!-- n = 4 | d = 23 -->
    <g transform="translate(141.917812 37.2) scale(0.12 -0.12)">
     <defs>
      <path id="DejaVuSans-6e" d="M 3513 2113 
L 3513 0 
L 2938 0 
L 2938 2094 
Q 2938 2591 2744 2837 
Q 2550 3084 2163 3084 
Q 1697 3084 1428 2787 
Q 1159 2491 1159 1978 
L 1159 0 
L 581 0 
L 581 3500 
L 1159 3500 
L 1159 2956 
Q 1366 3272 1645 3428 
Q 1925 3584 2291 3584 
Q 2894 3584 3203 3211 
Q 3513 2838 3513 2113 
z
" transform="scale(0.015625)"/>
      <path id="DejaVuSans-20" transform="scale(0.015625)"/>
      <path id="DejaVuSans-3d" d="M 678 2906 
L 4684 2906 
L 4684 2381 
L 678 2381 
L 678 2906 
z
M 678 1631 
L 4684 1631 
L 4684 1100 
L 678 1100 
L 678 1631 
z
" transform="scale(0.015625)"/>
      <path id="DejaVuSans-34" d="M 2419 4116 
L 825 1625 
L 2419 1625 
L 2419 4116 
z
M 2253 4666 
L 3047 4666 
L 3047 1625 
L 3713 1625 
L 3713 1100 
L 3047 1100 
L 3047 0 
L 2419 0 
L 2419 1100 
L 313 1100 
L 313 1709 
L 2253 4666 
z
" transform="scale(0.015625)"/>
      <path id="DejaVuSans-7c" d="M 1344 4891 
L 1344 -1509 
L 813 -1509 
L 813 4891 
L 1344 4891 
z
" transform="scale(0.015625)"/>
      <path id="DejaVuSans-64" d="M 2906 2969 
L 2906 4863 
L 3481 4863 
L 3481 0 
L 2906 0 
L 2906 525 
Q 2725 213 2448 61 
Q 2172 -91 1784 -91 
Q 1150 -91 751 415 
Q 353 922 353 1747 
Q 353 2572 751 3078 
Q 1150 3584 1784 3584 
Q 2172 3584 2448 3432 
Q 2725 3281 2906 2969 
z
M 947 1747 
Q 947 1113 1208 752 
Q 1469 391 1925 391 
Q 2381 391 2643 752 
Q 2906 1113 2906 1747 
Q 2906 2381 2643 2742 
Q 2381 3103 1925 3103 
Q 1469 3103 1208 2742 
Q 947 2381 947 1747 
z
" transform="scale(0.015625)"/>
      <path id="DejaVuSans-32" d="M 1228 531 
L 3431 531 
L 3431 0 
L 469 0 
L 469 531 
Q 828 903 1448 1529 
Q 2069 2156 2228 2338 
Q 2531 2678 2651 2914 
Q 2772 3150 2772 3378 
Q 2772 3750 2511 3984 
Q 2250 4219 1831 4219 
Q 1534 4219 1204 4116 
Q 875 4013 500 3803 
L 500 4441 
Q 881 4594 1212 4672 
Q 1544 4750 1819 4750 
Q 2544 4750 2975 4387 
Q 3406 4025 3406 3419 
Q 3406 3131 3298 2873 
Q 3191 2616 2906 2266 
Q 2828 2175 2409 1742 
Q 1991 1309 1228 531 
z
" transform="scale(0.015625)"/>
      <path id="DejaVuSans-33" d="M 2597 2516 
Q 3050 2419 3304 2112 
Q 3559 1806 3559 1356 
Q 3559 666 3084 287 
Q 2609 -91 1734 -91 
Q 1441 -91 1130 -33 
Q 819 25 488 141 
L 488 750 
Q 750 597 1062 519 
Q 1375 441 1716 441 
Q 2309 441 2620 675 
Q 2931 909 2931 1356 
Q 2931 1769 2642 2001 
Q 2353 2234 1838 2234 
L 1294 2234 
L 1294 2753 
L 1863 2753 
Q 2328 2753 2575 2939 
Q 2822 3125 2822 3475 
Q 2822 3834 2567 4026 
Q 2313 4219 1838 4219 
Q 1578 4219 1281 4162 
Q 984 4106 628 3988 
L 628 4550 
Q 988 4650 1302 4700 
Q 1616 4750 1894 4750 
Q 2613 4750 3031 4423 
Q 3450 4097 3450 3541 
Q 3450 3153 3228 2886 
Q 3006 2619 2597 2516 
z
" transform="scale(0.015625)"/>
     </defs>
     <use xlink:href="#DejaVuSans-6e"/>
     <use xlink:href="#DejaVuSans-20" x="63.378906"/>
     <use xlink:href="#DejaVuSans-3d" x="95.166016"/>
     <use xlink:href="#DejaVuSans-20" x="178.955078"/>
     <use xlink:href="#DejaVuSans-34" x="210.742188"/>
     <use xlink:href="#DejaVuSans-20" x="274.365234"/>
     <use xlink:href="#DejaVuSans-7c" x="306.152344"/>
     <use xlink:href="#DejaVuSans-20" x="339.84375"/>
     <use xlink:href="#DejaVuSans-64" x="371.630859"/>
     <use xlink:href="#DejaVuSans-20" x="435.107422"/>
     <use xlink:href="#DejaVuSans-3d" x="466.894531"/>
     <use xlink:href="#DejaVuSans-20" x="550.683594"/>
     <use xlink:href="#DejaVuSans-32" x="582.470703"/>
     <use xlink:href="#DejaVuSans-33" x="646.09375"/>
    </g>
   </g>
  </g>
 </g>
 <defs>
  <clipPath id="p7b41ff722d">
   <rect x="45" y="43.2" width="279" height="277.2"/>
  </clipPath>
 </defs>
</svg>
