<?xml version="1.0" encoding="utf-8" standalone="no"?>
<!DOCTYPE svg PUBLIC "-//W3C//DTD SVG 1.1//EN"
  "http://www.w3.org/Graphics/SVG/1.1/DTD/svg11.dtd">
<svg xmlns:xlink="http://www.w3.org/1999/xlink" width="360pt" height="360pt" viewBox="0 0 360 360" xmlns="http://www.w3.org/2000/svg" version="1.1">
 <metadata>
  <rdf:RDF xmlns:dc="http://purl.org/dc/elements/1.1/" xmlns:cc="http://creativecommons.org/ns#" xmlns:rdf="http://www.w3.org/1999/02/22-rdf-syntax-ns#">
   <cc:Work>
    <dc:type rdf:resource="http://purl.org/dc/dcmitype/StillImage"/>
    <dc:date>2026-01-09T19:10:29.903970</dc:date>
    <dc:format>image/svg+xml</dc:format>
    <dc:creator>
     <cc:Agent>
      <dc:title>Matplotlib v3.8.3, https://matplotlib.org/</dc:title>
     </cc:Agent>
    </dc:creator>
   </cc:Work>
  </rdf:RDF>
 </metadata>
 <defs>
  <style type="text/css">*{stroke-linejoin: round; stroke-linecap: butt}</style>
 </defs>
 <g id="figure_1">
  <g id="patch_1">
   <path d="M 0 360 
L 360 360 
L 360 0 
L 0 0 
L 0 360 
z
" style="fill: none"/>
  </g>
  <g id="axes_1">
   <g id="line2d_1">
    <path d="M 220.015445 181.8 
L 272.363944 145.868401 
L 102.244988 156.002958 
L 283.195269 306.468794 
L 296.272921 55.8 
L 80.71873 203.378544 
L 291.358373 238.235302 
L 222.384211 152.039449 
L 248.167617 165.117473 
L 128.712709 155.737125 
L 268.392687 298.571731 
L 306.091597 60.780292 
L 65.532885 196.064684 
L 304.330187 258.505908 
L 229.260881 124.005389 
L 220.015445 181.8 
L 158.421511 159.936988 
L 253.47116 284.30295 
L 311.318182 71.39589 
L 57.681818 186.780292 
L 310.934919 276.993187 
L 239.975254 99.301824 
L 189.494507 194.878024 
L 189.494507 168.721976 
L 239.975254 264.298176 
L 310.934919 86.606813 
L 57.681818 176.819708 
L 311.318182 292.20411 
L 253.47116 79.29705 
L 158.421511 203.663012 
L 220.015445 181.8 
L 229.260881 239.594611 
L 304.330187 105.094092 
L 65.532885 167.535316 
L 306.091597 302.819708 
L 268.392687 65.028269 
L 128.712709 207.862875 
L 248.167617 198.482527 
L 222.384211 211.560551 
L 291.358373 125.364698 
L 80.71873 160.221456 
L 296.272921 307.8 
L 283.195269 57.131206 
L 102.244988 207.597042 
L 272.363944 217.731599 
L 220.015445 181.8 
L 272.363944 145.868401 
L 102.244988 156.002958 
L 283.195269 306.468794 
L 296.272921 55.8 
L 80.71873 203.378544 
L 291.358373 238.235302 
L 222.384211 152.039449 
L 248.167617 165.117473 
L 128.712709 155.737125 
L 268.392687 298.571731 
L 306.091597 60.780292 
L 65.532885 196.064684 
L 304.330187 258.505908 
L 229.260881 124.005389 
L 220.015445 181.8 
L 158.421511 159.936988 
L 253.47116 284.30295 
L 311.318182 71.39589 
L 57.681818 186.780292 
L 310.934919 276.993187 
L 239.975254 99.301824 
L 189.494507 194.878024 
L 189.494507 168.721976 
L 239.975254 264.298176 
L 310.934919 86.606813 
L 57.681818 176.819708 
L 311.318182 292.20411 
L 253.47116 79.29705 
L 158.421511 203.663012 
L 220.015445 181.8 
L 229.260881 239.594611 
L 304.330187 105.094092 
L 65.532885 167.535316 
L 306.091597 302.819708 
L 268.392687 65.028269 
L 128.712709 207.862875 
L 248.167617 198.482527 
L 222.384211 211.560551 
L 291.358373 125.364698 
L 80.71873 160.221456 
L 296.272921 307.8 
L 283.195269 57.131206 
L 102.244988 207.597042 
L 272.363944 217.731599 
L 220.015445 181.8 
L 272.363944 145.868401 
L 102.244988 156.002958 
L 283.195269 306.468794 
L 296.272921 55.8 
L 80.71873 203.378544 
L 291.358373 238.235302 
L 222.384211 152.039449 
L 248.167617 165.117473 
L 128.712709 155.737125 
L 268.392687 298.571731 
L 306.091597 60.780292 
L 65.532885 196.064684 
L 304.330187 258.505908 
L 229.260881 124.005389 
L 220.015445 181.8 
L 158.421511 159.936988 
L 253.47116 284.30295 
L 311.318182 71.39589 
L 57.681818 186.780292 
L 310.934919 276.993187 
L 239.975254 99.301824 
L 189.494507 194.878024 
L 189.494507 168.721976 
L 239.975254 264.298176 
L 310.934919 86.606813 
L 57.681818 176.819708 
L 311.318182 292.20411 
L 253.47116 79.29705 
L 158.421511 203.663012 
L 220.015445 181.8 
L 229.260881 239.594611 
L 304.330187 105.094092 
L 65.532885 167.535316 
L 306.091597 302.819708 
L 268.392687 65.028269 
L 128.712709 207.862875 
L 248.167617 198.482527 
L 222.384211 211.560551 
L 291.358373 125.364698 
L 80.71873 160.221456 
L 296.272921 307.8 
L 283.195269 57.131206 
L 102.244988 207.597042 
L 272.363944 217.731599 
L 220.015445 181.8 
L 272.363944 145.868401 
L 102.244988 156.002958 
L 283.195269 306.468794 
L 296.272921 55.8 
L 80.71873 203.378544 
L 291.358373 238.235302 
L 222.384211 152.039449 
L 248.167617 165.117473 
L 128.712709 155.737125 
L 268.392687 298.571731 
L 306.091597 60.780292 
L 65.532885 196.064684 
L 304.330187 258.505908 
L 229.260881 124.005389 
L 220.015445 181.8 
L 158.421511 159.936988 
L 253.47116 284.30295 
L 311.318182 71.39589 
L 57.681818 186.780292 
L 310.934919 276.993187 
L 239.975254 99.301824 
L 189.494507 194.878024 
L 189.494507 168.721976 
L 239.975254 264.298176 
L 310.934919 86.606813 
L 57.681818 176.819708 
L 311.318182 292.20411 
L 253.47116 79.29705 
L 158.421511 203.663012 
L 220.015445 181.8 
L 229.260881 239.594611 
L 304.330187 105.094092 
L 65.532885 167.535316 
L 306.091597 302.819708 
L 268.392687 65.028269 
L 128.712709 207.862875 
L 248.167617 198.482527 
L 222.384211 211.560551 
L 291.358373 125.364698 
L 80.71873 160.221456 
L 296.272921 307.8 
L 283.195269 57.131206 
L 102.244988 207.597042 
L 272.363944 217.731599 
L 220.015445 181.8 
L 272.363944 145.868401 
L 102.244988 156.002958 
L 283.195269 306.468794 
L 296.272921 55.8 
L 80.71873 203.378544 
L 291.358373 238.235302 
L 222.384211 152.039449 
L 248.167617 165.117473 
L 128.712709 155.737125 
L 268.392687 298.571731 
L 306.091597 60.780292 
L 65.532885 196.064684 
L 304.330187 258.505908 
L 229.260881 124.005389 
L 220.015445 181.8 
L 158.421511 159.936988 
L 253.47116 284.30295 
L 311.318182 71.39589 
L 57.681818 186.780292 
L 310.934919 276.993187 
L 239.975254 99.301824 
L 189.494507 194.878024 
L 189.494507 168.721976 
L 239.975254 264.298176 
L 310.934919 86.606813 
L 57.681818 176.819708 
L 311.318182 292.20411 
L 253.47116 79.29705 
L 158.421511 203.663012 
L 220.015445 181.8 
L 229.260881 239.594611 
L 304.330187 105.094092 
L 65.532885 167.535316 
L 306.091597 302.819708 
L 268.392687 65.028269 
L 128.712709 207.862875 
L 248.167617 198.482527 
L 222.384211 211.560551 
L 291.358373 125.364698 
L 80.71873 160.221456 
L 296.272921 307.8 
L 283.195269 57.131206 
L 102.244988 207.597042 
L 272.363944 217.731599 
L 220.015445 181.8 
L 272.363944 145.868401 
L 102.244988 156.002958 
L 283.195269 306.468794 
L 296.272921 55.8 
L 80.71873 203.378544 
L 291.358373 238.235302 
L 222.384211 152.039449 
L 248.167617 165.117473 
L 128.712709 155.737125 
L 268.392687 298.571731 
L 306.091597 60.780292 
L 65.532885 196.064684 
L 304.330187 258.505908 
L 229.260881 124.005389 
L 220.015445 181.8 
L 158.421511 159.936988 
L 253.47116 284.30295 
L 311.318182 71.39589 
L 57.681818 186.780292 
L 310.934919 276.993187 
L 239.975254 99.301824 
L 189.494507 194.878024 
L 189.494507 168.721976 
L 239.975254 264.298176 
L 310.934919 86.606813 
L 57.681818 176.819708 
L 311.318182 292.20411 
L 253.47116 79.29705 
L 158.421511 203.663012 
L 220.015445 181.8 
L 229.260881 239.594611 
L 304.330187 105.094092 
L 65.532885 167.535316 
L 306.091597 302.819708 
L 268.392687 65.028269 
L 128.712709 207.862875 
L 248.167617 198.482527 
L 222.384211 211.560551 
L 291.358373 125.364698 
L 80.71873 160.221456 
L 296.272921 307.8 
L 283.195269 57.131206 
L 102.244988 207.597042 
L 272.363944 217.731599 
L 220.015445 181.8 
L 272.363944 145.868401 
L 102.244988 156.002958 
L 283.195269 306.468794 
L 296.272921 55.8 
L 80.71873 203.378544 
L 291.358373 238.235302 
L 222.384211 152.039449 
L 248.167617 165.117473 
L 128.712709 155.737125 
L 268.392687 298.571731 
L 306.091597 60.780292 
L 65.532885 196.064684 
L 304.330187 258.505908 
L 229.260881 124.005389 
L 220.015445 181.8 
L 158.421511 159.936988 
L 253.47116 284.30295 
L 311.318182 71.39589 
L 57.681818 186.780292 
L 310.934919 276.993187 
L 239.975254 99.301824 
L 189.494507 194.878024 
L 189.494507 168.721976 
L 239.975254 264.298176 
L 310.934919 86.606813 
L 57.681818 176.819708 
L 311.318182 292.20411 
L 253.47116 79.29705 
L 158.421511 203.663012 
L 220.015445 181.8 
L 229.260881 239.594611 
L 304.330187 105.094092 
L 65.532885 167.535316 
L 306.091597 302.819708 
L 268.392687 65.028269 
L 128.712709 207.862875 
L 248.167617 198.482527 
L 222.384211 211.560551 
L 291.358373 125.364698 
L 80.71873 160.221456 
L 296.272921 307.8 
L 283.195269 57.131206 
L 102.244988 207.597042 
L 272.363944 217.731599 
L 220.015445 181.8 
L 272.363944 145.868401 
L 102.244988 156.002958 
L 283.195269 306.468794 
L 296.272921 55.8 
L 80.71873 203.378544 
L 291.358373 238.235302 
L 222.384211 152.039449 
L 248.167617 165.117473 
L 128.712709 155.737125 
L 268.392687 298.571731 
L 306.091597 60.780292 
L 65.532885 196.064684 
L 304.330187 258.505908 
L 229.260881 124.005389 
L 220.015445 181.8 
L 158.421511 159.936988 
L 253.47116 284.30295 
L 311.318182 71.39589 
L 57.681818 186.780292 
L 310.934919 276.993187 
L 239.975254 99.301824 
L 189.494507 194.878024 
L 189.494507 168.721976 
L 239.975254 264.298176 
L 310.934919 86.606813 
L 57.681818 176.819708 
L 311.318182 292.20411 
L 253.47116 79.29705 
L 158.421511 203.663012 
L 220.015445 181.8 
L 229.260881 239.594611 
L 304.330187 105.094092 
L 65.532885 167.535316 
L 306.091597 302.819708 
L 268.392687 65.028269 
L 128.712709 207.862875 
L 248.167617 198.482527 
L 222.384211 211.560551 
L 291.358373 125.364698 
L 80.71873 160.221456 
L 296.272921 307.8 
L 283.195269 57.131206 
L 102.244988 207.597042 
L 272.363944 217.731599 
L 272.363944 217.731599 
" clip-path="url(#p6c1202c12e)" style="fill: none; stroke: #0000ff; stroke-width: 1.5; stroke-linecap: square"/>
   </g>
   <g id="text_1">
    <!-- n = 3 | d = 52 -->
    <g transform="translate(141.917812 37.2) scale(0.12 -0.12)">
     <defs>
      <path id="DejaVuSans-6e" d="M 3513 2113 
L 3513 0 
L 2938 0 
L 2938 2094 
Q 2938 2591 2744 2837 
Q 2550 3084 2163 3084 
Q 1697 3084 1428 2787 
Q 1159 2491 1159 1978 
L 1159 0 
L 581 0 
L 581 3500 
L 1159 3500 
L 1159 2956 
Q 1366 3272 1645 3428 
Q 1925 3584 2291 3584 
Q 2894 3584 3203 3211 
Q 3513 2838 3513 2113 
z
" transform="scale(0.015625)"/>
      <path id="DejaVuSans-20" transform="scale(0.015625)"/>
      <path id="DejaVuSans-3d" d="M 678 2906 
L 4684 2906 
L 4684 2381 
L 678 2381 
L 678 2906 
z
M 678 1631 
L 4684 1631 
L 4684 1100 
L 678 1100 
L 678 1631 
z
" transform="scale(0.015625)"/>
      <path id="DejaVuSans-33" d="M 2597 2516 
Q 3050 2419 3304 2112 
Q 3559 1806 3559 1356 
Q 3559 666 3084 287 
Q 2609 -91 1734 -91 
Q 1441 -91 1130 -33 
Q 819 25 488 141 
L 488 750 
Q 750 597 1062 519 
Q 1375 441 1716 441 
Q 2309 441 2620 675 
Q 2931 909 2931 1356 
Q 2931 1769 2642 2001 
Q 2353 2234 1838 2234 
L 1294 2234 
L 1294 2753 
L 1863 2753 
Q 2328 2753 2575 2939 
Q 2822 3125 2822 3475 
Q 2822 3834 2567 4026 
Q 2313 4219 1838 4219 
Q 1578 4219 1281 4162 
Q 984 4106 628 3988 
L 628 4550 
Q 988 4650 1302 4700 
Q 1616 4750 1894 4750 
Q 2613 4750 3031 4423 
Q 3450 4097 3450 3541 
Q 3450 3153 3228 2886 
Q 3006 2619 2597 2516 
z
" transform="scale(0.015625)"/>
      <path id="DejaVuSans-7c" d="M 1344 4891 
L 1344 -1509 
L 813 -1509 
L 813 4891 
L 1344 4891 
z
" transform="scale(0.015625)"/>
      <path id="DejaVuSans-64" d="M 2906 2969 
L 2906 4863 
L 3481 4863 
L 3481 0 
L 2906 0 
L 2906 525 
Q 2725 213 2448 61 
Q 2172 -91 1784 -91 
Q 1150 -91 751 415 
Q 353 922 353 1747 
Q 353 2572 751 3078 
Q 1150 3584 1784 3584 
Q 2172 3584 2448 3432 
Q 2725 3281 2906 2969 
z
M 947 1747 
Q 947 1113 1208 752 
Q 1469 391 1925 391 
Q 2381 391 2643 752 
Q 2906 1113 2906 1747 
Q 2906 2381 2643 2742 
Q 2381 3103 1925 3103 
Q 1469 3103 1208 2742 
Q 947 2381 947 1747 
z
" transform="scale(0.015625)"/>
      <path id="DejaVuSans-35" d="M 691 4666 
L 3169 4666 
L 3169 4134 
L 1269 4134 
L 1269 2991 
Q 1406 3038 1543 3061 
Q 1681 3084 1819 3084 
Q 2600 3084 3056 2656 
Q 3513 2228 3513 1497 
Q 3513 744 3044 326 
Q 2575 -91 1722 -91 
Q 1428 -91 1123 -41 
Q 819 9 494 109 
L 494 744 
Q 775 591 1075 516 
Q 1375 441 1709 441 
Q 2250 441 2565 725 
Q 2881 1009 2881 1497 
Q 2881 1984 2565 2268 
Q 2250 2553 1709 2553 
Q 1456 2553 1204 2497 
Q 953 2441 691 2322 
L 691 4666 
z
" transform="scale(0.015625)"/>
      <path id="DejaVuSans-32" d="M 1228 531 
L 3431 531 
L 3431 0 
L 469 0 
L 469 531 
Q 828 903 1448 1529 
Q 2069 2156 2228 2338 
Q 2531 2678 2651 2914 
Q 2772 3150 2772 3378 
Q 2772 3750 2511 3984 
Q 2250 4219 1831 4219 
Q 1534 4219 1204 4116 
Q 875 4013 500 3803 
L 500 4441 
Q 881 4594 1212 4672 
Q 1544 4750 1819 4750 
Q 2544 4750 2975 4387 
Q 3406 4025 3406 3419 
Q 3406 3131 3298 2873 
Q 3191 2616 2906 2266 
Q 2828 2175 2409 1742 
Q 1991 1309 1228 531 
z
" transform="scale(0.015625)"/>
     </defs>
     <use xlink:href="#DejaVuSans-6e"/>
     <use xlink:href="#DejaVuSans-20" x="63.378906"/>
     <use xlink:href="#DejaVuSans-3d" x="95.166016"/>
     <use xlink:href="#DejaVuSans-20" x="178.955078"/>
     <use xlink:href="#DejaVuSans-33" x="210.742188"/>
     <use xlink:href="#DejaVuSans-20" x="274.365234"/>
     <use xlink:href="#DejaVuSans-7c" x="306.152344"/>
     <use xlink:href="#DejaVuSans-20" x="339.84375"/>
     <use xlink:href="#DejaVuSans-64" x="371.630859"/>
     <use xlink:href="#DejaVuSans-20" x="435.107422"/>
     <use xlink:href="#DejaVuSans-3d" x="466.894531"/>
     <use xlink:href="#DejaVuSans-20" x="550.683594"/>
     <use xlink:href="#DejaVuSans-35" x="582.470703"/>
     <use xlink:href="#DejaVuSans-32" x="646.09375"/>
    </g>
   </g>
  </g>
 </g>
 <defs>
  <clipPath id="p6c1202c12e">
   <rect x="45" y="43.2" width="279" height="277.2"/>
  </clipPath>
 </defs>
</svg>
